<svg xmlns="http://www.w3.org/2000/svg" viewBox="0 0 148 148">
  <defs>
    <style>
      .a {
        fill: #fff;
      }

      .b {
        fill: #ff5910;
      }

      .c {
        fill: #002d72;
      }
    </style>
  </defs>
  <title>Asset 1</title>
  <g>
    <path class="a" d="M74,148A74,74,0,1,0,0,74a74,74,0,0,0,74,74"/>
    <path class="b" d="M74,4.57A69.44,69.44,0,1,0,143.43,74,69.51,69.51,0,0,0,74,4.57"/>
    <path class="a" d="M133.5,101.44c-.16.35-.32.7-.49,1a64,64,0,0,1-3.09,5.64q-1.41,2.32-3,4.5c-1.11,1.53-2.3,3-3.54,4.44-.9,1-1.84,2-2.81,3a65.8,65.8,0,0,1-22.86,15,7,7,0,0,0,2.55-2l-.89-.22a11.92,11.92,0,0,1-4.33,3l1.23-.19c-1,.35-1.91.67-2.89,1l1.24-1.2-1-.4a7.36,7.36,0,0,1-2.79,2.33A65.42,65.42,0,0,1,27.32,120c-1-1-1.9-2-2.8-3q-1.69-2-3.24-4t-3-4.46q-1.59-2.55-2.94-5.27l-.49-1a65.19,65.19,0,0,1-4.66-13.31c-.09-.35-.16-.7-.23-1.06,0-.11-.06-.23-.08-.34a65.59,65.59,0,0,1,3.47-38.21A5.76,5.76,0,0,0,13.41,52a8.71,8.71,0,0,0-2.34,4.12l.9.55a11.32,11.32,0,0,1,2.4-4.39c-.68-2.34.35-3.66.76-5.31l-.74-.19A66,66,0,0,1,33.73,22.34a14,14,0,0,0-1.09,2.34l1-.61s1.12-1.87,2.2-3.28a67,67,0,0,1,6.58-4.17l-1.79,1a14.49,14.49,0,0,0-2.66,5L40,22.1a14.76,14.76,0,0,1,3.23-5.94,65.48,65.48,0,0,1,88.52,26.93c.1.65.38,2.3-.09,2.53a6.32,6.32,0,0,1-1.07,3.59l.55,1.85a6.72,6.72,0,0,0,1.41-3.94c.59-.44.32-1.27.31-1.87.5,1,1,2.06,1.43,3.11a5.29,5.29,0,0,1-.76,2,4.92,4.92,0,0,1-.81,3.31l.69,1.72a8.28,8.28,0,0,0,1.18-3.77,2.87,2.87,0,0,0,.49-1.32c.4,1,.77,2.07,1.13,3.13a3.88,3.88,0,0,1-.64,1.91,4,4,0,0,1-.65,2.73l.62,1.72a12.45,12.45,0,0,0,1-3.13,4.67,4.67,0,0,0,.39-.91c.35,1.23.68,2.48,1,3.74a17.09,17.09,0,0,1-1.33,3.18l.14,1a15.11,15.11,0,0,0,1.55-2.49c.16.78.3,1.56.42,2.35a8.08,8.08,0,0,1-1.08,2.34l.14.76s.72-1,1.16-1.67a67.09,67.09,0,0,1,.62,9,65.81,65.81,0,0,1-1.26,12.79,65,65,0,0,1-4.77,14.64"/>
    <path class="c" d="M73.15,10.71l-.4,3.21-.89,1v6.7l-2.19,1.65V28l-1.42,1v9.76h-6.2V31.14H53v7.42l-1.92.82V52.85h-6.6V41.58l-.69-.68V35h-.68l-1.62-6.22a5.63,5.63,0,0,0,.09-1.09c0-.94-.18-1.3-.39-1.3s-.38.36-.38,1.3a5.67,5.67,0,0,0,.11,1.19L39.24,35h-.68V40.9l-.69.68V53.84H30.59V53c-.42,1.65-1.5,4.4-1,6.66l-.17-.11L30,60a8.64,8.64,0,0,0-4.53,4l-1.37-1.1c.68-2.05,2.42-2.5,4.46-3.85l-.48-.3a13.43,13.43,0,0,1,1-6.58l1.45.88V44.78c0-1.24-1.79-1.27-1.79-1.27V41.3l-1.52-.42-.13-1-.41-.13-.41.13-.14,1-1.51.42v2.21s-1.79-.11-1.79,1.4V56.72L20,58.62v7l-1.1.62V71.6l-1,.62v10H15.82V72.29h-.48L14.1,61.52l-.62,0L12.17,72.29h-.75v7.9H9.84s-1,.83-.94,1.25q.35,3,1,6a3.38,3.38,0,0,0,.08.34c.07.36.15.71.23,1.06a64.62,64.62,0,0,0,4.67,13.31,29,29,0,0,0,2.87-2.31l.16-.15h3.92l.15.13C34.1,110,56.66,114.31,70.89,115l-1-.46a12.4,12.4,0,0,0,3.3-3.63l1,1.24A12.41,12.41,0,0,1,71.64,115c.88,0,1.73.06,2.54.07,15.94.14,40.68-6.39,52.1-16.35l.15-.14h4.16l.51.52,2.4,2.31a64.51,64.51,0,0,0,4.77-14.64l-.66-1.52h-3v-6.6h-3.3v3.85h-2.74V47.35h-7.7V65.21h-5.77V44.33l-1-.9V41l-2.25-1v-3H108v3l-2.25,1v2.48l-1,.9v4.12H99.14V36.36H94.47V30.59h-3v-3H84.58v3H82.1v9.62H78.38V29L77,28V23.22l-2.19-1.64v-6.7l-.81-1-.34-3.21Zm53.67,89A39.78,39.78,0,0,1,122.4,103v14.1h1q1.88-2.15,3.55-4.43V99.71Zm3.11,0v8.41a62.59,62.59,0,0,0,3.08-5.63l-2.69-2.59-.18-.19Zm-108.64,1.1v12.08q1.53,2.08,3.23,4H26V104a40.34,40.34,0,0,1-4.53-3.22Zm-3,0a26,26,0,0,1-2.93,2.32q1.35,2.72,2.93,5.27Zm103,2.81c-1.3.79-2.68,1.55-4.12,2.28v11.12h4.12v-13.4Zm-94.25,1v12.24h4.12V106.86c-1.42-.68-2.8-1.4-4.12-2.17Zm89,1.78c-1.33.64-2.71,1.25-4.13,1.84V117h4.13V106.47Zm-83.8.9v9.56h4.11V109.1c-1.4-.54-2.77-1.12-4.11-1.73Zm78.58,1.39c-1.35.54-2.73,1-4.13,1.53V117h4.13v-8.28Zm-73.37.75v7.43h4.13v-6c-1.39-.43-2.77-.9-4.13-1.4Zm68.14,1.16c-1.35.46-2.73.88-4.12,1.29V117h4.12v-6.36Zm-62.91.58V117h4.12V112.4c-1.39-.35-2.76-.73-4.12-1.15Zm57.69,1c-1.36.38-2.74.74-4.12,1.07V117h4.12v-4.76Zm-52.47.41V117h4.12v-3.34c-1.37-.28-2.75-.6-4.12-.94Zm47.25.92c-1.37.32-2.75.61-4.12.87V117h4.12V113.6Zm-42,.25V117h4.12v-2.36c-1.36-.23-2.73-.48-4.12-.76Zm36.81.83a87.07,87.07,0,0,1-15.8,1.52,110,110,0,0,1-15.79-1.42V117L90,117ZM27.32,120a65.42,65.42,0,0,0,63.47,17.4A7.36,7.36,0,0,0,93.58,135l1,.4-1.24,1.19c1-.3,1.94-.62,2.9-1l-1.24.19a11.92,11.92,0,0,0,4.33-3l.89.22a7,7,0,0,1-2.55,2,65.8,65.8,0,0,0,22.86-15L81.05,120l.42.44a16.12,16.12,0,0,1-4.72,4.45l-1.1-1A13.52,13.52,0,0,0,79.87,120L27.32,120Z"/>
    <path class="a" d="M82.14,82.26c.92-.55,1.66-.42,1.89-.15a.4.4,0,0,1,.1.3,1.55,1.55,0,0,1-.41.89A8.56,8.56,0,0,1,79,85.84a8.77,8.77,0,0,1,3.18-3.58m2.7,1.93a2.88,2.88,0,0,0,.72-1.78,1.91,1.91,0,0,0-.45-1.24c-.79-.9-2.3-1-3.69-.13a9.83,9.83,0,0,0-4.22,5.48l-.18.81.83,0a10,10,0,0,0,7-3.19m27.43-23.64-9.52.08L99.2,68.12l-6.79.12L89,75.13l6.92-.27c-.77,1.69-4.23,9.2-4.23,9.2-1.71,3.29-6.4,9.48-11.89,9.18-.93,0-1.39-.59-1.65-1.51,6.79-.81,9.86-3.46,11-5A8.24,8.24,0,0,0,91,81.83a5.3,5.3,0,0,0-1-3.2c-1.83-2.51-5.68-3.29-9.57-1.94-6.26,2.17-11,8.76-11,14.88,0,.33,0,.65.06,1a1.72,1.72,0,0,1-.85.44s0,0-.1-.08c-2.56-4.25,9.69-26.61,14.3-35l.58-1.05H72.28l-.21.21c-3.7,3.72-8.29,11.37-12,17.51l-1.75,2.86.92-3.72c1.35-5.69,3-12.76,4.69-15.88l.56-1.05H63.3l-9.13.07-.21.25c-2.15,2.59-4.75,8.59-7.49,14.94-3.77,8.71-8.92,20.64-12,19.74a.46.46,0,0,1-.32-.33c-.47-1.31,1.16-5,2.91-7.56l1.27-1.83-7.73,2.78-.12.13c-2.57,2.84-4.88,8.15-4.13,11.79a5,5,0,0,0,2.9,3.68,7.93,7.93,0,0,0,6.37.13c5.72-2.21,10.23-10,12.66-15-1.2,5.65-3.1,11.64-4.46,13.77l-.7,1.1h8.78l.22-.28c1.07-1.41,2.68-4.06,4.53-7.12,1.26-2.07,2.6-4.25,3.93-6.33a18.9,18.9,0,0,0-1.2,6.06,10.42,10.42,0,0,0,.84,4.37,5.7,5.7,0,0,0,4.57,3.42c3.16.36,5.84-1.61,7-2.79a8.24,8.24,0,0,0,1.69,1.51h0c2.54,1.49,9.69,2,15-3.11a6,6,0,0,0,4.38,3.76,9.45,9.45,0,0,0,8-2.32,11.41,11.41,0,0,0,4.19,2,10.84,10.84,0,0,0,12.83-8,17,17,0,0,0,.3-3.11,18.31,18.31,0,0,0-1-5.7,10.49,10.49,0,0,1-.63-2.91,3.94,3.94,0,0,1,.85-2.41l.49-.67-4.25-2.18,4.92-.08,2.79-6.8L108.7,68l3.56-7.45m-.83,14.16c-1.45,1.06-4,4.09-9.37,10.87-1.44,1.83-3,3.77-4,4.93a6.4,6.4,0,0,1,.4-1l6.94-14.75,6-.09m-5.2,14.58a42.94,42.94,0,0,1,3.41-4.61c0,.27.06.66.06.66a25.05,25.05,0,0,1,.27,3.31,18.09,18.09,0,0,1-.11,1.87,4.62,4.62,0,0,1-1.69,2.88,2.39,2.39,0,0,1-2,.42.89.89,0,0,1-.63-.64,1.5,1.5,0,0,1-.05-.37,3.28,3.28,0,0,1,1.14-2.1l.48-.48-.88-.94m-2,4.29a2.35,2.35,0,0,0,1.69,1.64,3.88,3.88,0,0,0,3.13-.66,6,6,0,0,0,2.27-3.88,21.74,21.74,0,0,0-.16-5.51l-.4-4-1.09,1.29-1,1.16a43,43,0,0,0-4,5.36l-.29.47.78.83a4.41,4.41,0,0,0-1.14,2.53,2.68,2.68,0,0,0,.11.77"/>
    <path class="b" d="M66,12.25l-2.4.34a11.6,11.6,0,0,1-2.41,2.89c.66.27,1.17.89,1,5.36l2.17-.14c-.14-4.95-1.07-4.95-1.41-4.95a27.53,27.53,0,0,0,3-3.5Zm4.33.2c-.34.83-2.89,2.41-3.5,2.89a8,8,0,0,1,.85.5c.61.49,1.48,1.92,1.41,5L71,21c-.1-3.57-1-4.71-1.34-5s-.8-.32-1.06-.39a15.6,15.6,0,0,0,3.71-2.95l-2-.21Zm-10.92.07-2.06.21a5.7,5.7,0,0,1-1.45,2.95c.69,1.24.69,3-.41,5.29l2.06-.13c1.1-2.75.82-4.13.21-5.09.75-.48,1.65-3.23,1.65-3.23Zm-5.5.69-2.27.62a4.28,4.28,0,0,1-1.44,2.54c.66.22.34,1-.08,2.05S49.3,20,48.79,21.11L50.85,21c1.37-2.34,2.4-4.6,1.37-4.88.76-.48,1.72-2.88,1.72-2.88Zm25.21.07A15.74,15.74,0,0,1,75.78,16c1.1.55,2,2.4,1.72,5.22l2.2.54c-.14-3.57-1-4.94-2-5.22.75-.48,3.71-3.09,3.71-3.09ZM48.69,14.46l-2.06.38a4.72,4.72,0,0,1-1.58,2.28c.18,1.08-.19,2-1.76,4.4l1.94-.25c1.88-2.42,1.72-3.56,1.7-4.4A7.81,7.81,0,0,0,48.69,14.46Zm36.37.06a17,17,0,0,1-3,2.19c.68,1.24,2.47,3.23,2.2,6.05l1.92.27c-.55-4.53-1.37-5.22-2.4-5.49.75-.49,3.57-2.68,3.57-2.68l-2.27-.34Zm6.46,1.64c-.49,1-1.72,1.45-2.34,1.93a9.94,9.94,0,0,1,1.65,6.11l2.13.62c-.41-4.12-.89-5.91-1.92-6.18.75-.48,2.61-2.13,2.61-2.13l-2.13-.35Zm6,2.13c-.48,1-1.72,1.45-2.33,1.93a8.33,8.33,0,0,1,1.51,5.56l2.06.82C98.38,22.34,98,21.25,97,21a17.42,17.42,0,0,0,2.74-2.13l-2.13-.55ZM104,20.7c-.48,1-1.72,1.16-2.34,1.65a9.25,9.25,0,0,1,1.65,5.9l2.2,1.1c-.14-3.43-1-5.77-2-6a9,9,0,0,0,2.54-1.93L104,20.7Zm5.43,2.61c-.49.68-1.72,1.17-2.34,1.65.69,1.23,2,2.81,1.72,5.63L111,31.82c-.13-3.57-1-5.83-2-6.11A10.11,10.11,0,0,0,111.3,24l-1.85-.68Zm5.15,3c-.48,1-1.1.89-1.72,1.38a11.64,11.64,0,0,1,1.72,6.59l1.92,1.37c-.28-4.4-.75-6.8-1.79-7.07a8.77,8.77,0,0,0,1.51-1.31l-1.64-1Zm5.5,3.5c-.21.76-1,1-1.65,1.51a13.45,13.45,0,0,1,1,6.8l1.92,1.38c.14-4.26-.48-6-1.17-7.28a3.93,3.93,0,0,0,1.17-1.17l-1.23-1.24ZM125,34c-.21.76-.82,1-1.44,1.52.34,1.51,1,3.7.62,5.9L125.66,43a16.7,16.7,0,0,0-.28-6.39,4.92,4.92,0,0,0,1-1.09L125,34Zm3.78,4.81c0,.29,0,2.19-.51,2.46a6.21,6.21,0,0,1-.73,3.59l1.31,1.58a9.69,9.69,0,0,0,.85-4.36c.16-.54.34-.47.38-1.07l-1.3-2.2ZM17,47.21a9,9,0,0,0-.41,6.18,8.3,8.3,0,0,0-2.66,3.83l1.09.69a6.54,6.54,0,0,1,2.67-4.1c-.69-2.34.29-4.56.7-6.21L17,47.21Zm3.44,1A12.68,12.68,0,0,0,20,54.63c-1.11,1.1-2.67,1.89-3.35,3.95l1.36.7c.55-1.51,2-3.55,3.5-4-.69-2.34.07-4.88.49-6.53l-1.59-.61Zm4.32,1.7c-.83,2.33-.47,4.11-.2,6.86l.25.12c-1.11,1.08-3.28,1.63-4,3.68l1.37,1.1a8.08,8.08,0,0,1,4.4-3.85l-.41-.23a14.14,14.14,0,0,1,.14-6.87l-1.59-.81Zm4.39,2.27a13.51,13.51,0,0,0-1,6.57l.48.31c-2,1.35-3.78,1.8-4.46,3.84L25.5,64A8.54,8.54,0,0,1,30,60l-.59-.42.17.12c-.54-2.27.55-5,1-6.66l-1.46-.88Zm4.75,3.3c-1,2.22-2.2,6-1.41,6.54l.4.49c-1.79.69-5,1.51-5.42,3.11l1.3,1.17C29,65.7,31.41,64.52,34,63.84l-.45-.56c-.07-2.26,1.22-5.09,1.76-6.59l-1.45-1.24ZM62.24,58.2l-7.36,0c-2,2.55-4.47,8.26-7.11,14.35C42.09,85.76,38.06,94.29,34,93.13a1.84,1.84,0,0,1-1.27-1.21,3.09,3.09,0,0,1-.16-1c0-1.82,1.15-4.27,2.16-6.06L31.4,86c-2,2.28-3.82,6.19-3.82,9.18a6.14,6.14,0,0,0,.12,1.24,3.49,3.49,0,0,0,2.08,2.67,6.51,6.51,0,0,0,5.28.11c6.47-2.51,11.61-13.47,13-16.77.77-1.8,1.06-2.47,1.8-2.26a.73.73,0,0,1,.55.83,8.84,8.84,0,0,1-.15,1.22s-.11.66-.11.68c-.9,5.3-2.87,12.51-4.63,16.07h5.58c1-1.41,2.53-3.86,4.26-6.72,2-3.33,4.31-7.12,6.36-10,1.91-2.7,2.16-3,2.84-2.63s.49.78-1,3.74c-2.66,4.16-3.59,9.93-2.11,13.14a4.27,4.27,0,0,0,3.46,2.6c3,.35,5.72-2.11,6.27-2.79l.57-.7.55.71a6.85,6.85,0,0,0,1.91,1.7c2,1.16,8.71,1.89,13.59-3.16l.07-.11.84-.49.4-.19.31.78s.15.38.22.52a4.74,4.74,0,0,0,3.53,3.14,8.14,8.14,0,0,0,7.18-2.29l.43-.41.48.34a11.16,11.16,0,0,0,4,2.06,9.44,9.44,0,0,0,11.18-6.84,15.14,15.14,0,0,0,.28-2.85,16.94,16.94,0,0,0-1-5.28,11.57,11.57,0,0,1-.69-3.35,5.26,5.26,0,0,1,.74-2.5l-3.35-1.72c-1.25.57-6.27,6.92-9.31,10.76-5.32,6.74-5.38,6.71-6.1,6.35l-.6-.7c-.31-.91.33-2.4.74-3.2l6.92-14.68.34-.83,13.1-.2c.23-.59,1.12-2.75,1.61-3.94l-12.75.2S109.27,63.52,110,62l-6.35,0c-.35.72-3.54,7.48-3.54,7.48l-6.81.11-2,4,6.86-.27L93,84.69c-2,3.86-7,10.31-13.25,10-1.29-.08-2.89-.72-3.21-3.4l-.08-.73.72-.06c6.94-.61,9.81-3.17,10.91-4.64,1.75-2.34,2-4.66.78-6.36-1.47-2-4.67-2.59-8-1.45-6.05,2.1-10.73,9-10,14.76l0,.34-.24.24a3.24,3.24,0,0,1-2.22,1,1.56,1.56,0,0,1-1.16-.74,4.48,4.48,0,0,1-.51-2.32c0-6.09,6.66-19.29,14.2-33.09H72.91c-3.55,3.66-8,11-11.61,17l-3.23,5.27c-.78,1.19-1,1.59-1.67,1.3a.61.61,0,0,1-.43-.64,7.12,7.12,0,0,1,.34-1.53l1.56-6.33c1.31-5.54,2.79-11.63,4.37-15.16Zm-24.44.47c-1.23,3.57-1.86,5.44-1.45,7.23l.39.42c-1.12.41-4.22,1.28-5.45,3.19L32.37,71c1-1.37,3.85-2.88,5.77-3.16l-.41-.46c-.26-2.6,1-5.73,1.51-7.23L37.8,58.67Zm5.43,6c-1.49,2.17-3,5-2.89,6.62l.38.42c-2.8.61-4.29.53-6.21,2l1.23,1.8c1-1.38,4.46-2.07,6.39-2.34l-.42-.45c-.11-2.19,1.54-4.93,2.76-6.29l-1.24-1.8ZM41.85,77.58A22.51,22.51,0,0,0,38,79l-.29.15.6,1.44a8.75,8.75,0,0,1,3.4-1.25l.14-1.71Zm41.63,2.88a2.23,2.23,0,0,1,1.62.72,1.83,1.83,0,0,1,.45,1.23,2.92,2.92,0,0,1-.72,1.79,10,10,0,0,1-7,3.19l-.82,0,.17-.81A9.81,9.81,0,0,1,81.41,81a3.88,3.88,0,0,1,2.07-.58Zm27.23.72.4,4a21.34,21.34,0,0,1,.16,5.52A6,6,0,0,1,109,94.57a3.88,3.88,0,0,1-3.13.66,2.35,2.35,0,0,1-1.69-1.63,2.76,2.76,0,0,1-.11-.78,4.43,4.43,0,0,1,1.14-2.53l-.78-.83.29-.46a43.24,43.24,0,0,1,4-5.37l1-1.16ZM58.47,97.46c-.41,1.1-.82,1.65-.55,2.75l.66.82a15.92,15.92,0,0,0-4.36-.07l-1.11,1.45c1.1,0,5-.14,6.32.27l-.77-1.56.36.46A8.39,8.39,0,0,1,59.43,99l-1-1.51Zm5.85,4.6c-1.29,1.41-2.84,3.42-2.82,4.34L62,107a34.12,34.12,0,0,0-7.15.2l1,1.59a48.42,48.42,0,0,1,7.71.06l-.55-.67a2.76,2.76,0,0,1,.58-2.53c.67-.89,1.87-2.18,3-3.51a6.58,6.58,0,0,1-2.28-.06Zm5,3.63c-.55.83-4.48,4.63-3.8,6.28l1,.33s.9.54-.07,0-6-.83-8.6-.55l1.3,1.86a58.1,58.1,0,0,1,8.55-.07c-.07-.07-1.12-1.05-.84-1.52a20.78,20.78,0,0,1,3.63-4.62l-1.14-1.71Zm3.83,5.18a12.11,12.11,0,0,1-3.3,3.63l1,.46.73,0a12.43,12.43,0,0,0,2.57-2.88l-1-1.24Zm6.7,9.11a13.52,13.52,0,0,1-4.22,3.93l1.09,1a16.28,16.28,0,0,0,4.73-4.45l-.42-.44Zm-6.28,1.32a35,35,0,0,1-8.27.27L66.58,123a29,29,0,0,0,7.83-.69l-.82-1Zm10.53,1.54c-.54.86-2.86,3.87-4.65,4.7l1.24.82A14,14,0,0,0,85.08,124l-1-1.11Zm-7.44,2.1c-1,.41-2.13.75-8,.69L70.05,127a28.83,28.83,0,0,0,7.79-1l-1.16-1.1ZM87.45,126a11.33,11.33,0,0,1-4.39,4l1.1.69A12.7,12.7,0,0,0,88.55,127l-1.1-1Zm-6.88,2.36a22.26,22.26,0,0,1-8.16,1l1.79,1.23c2.47.14,5.54-.75,7.74-1.3Zm10.16.12a9.86,9.86,0,0,1-4.23,3.4l.66.37c-.55.69-1.38,1.91-5.85,2.85l1.6.54c4.26-.82,5.79-2.87,4.82-3l-.32-.24.32.18a10.74,10.74,0,0,0,4.11-3.33l-1.11-.76Zm3.11,1.87a8.79,8.79,0,0,1-4.18,3.21l.79.34-.1,0c-.71.94-1.88,2-5.11,2.73l1.87.41c2.35-.28,4.88-2.59,4.06-2.87l-.38-.12a11.65,11.65,0,0,0,4-3.12l-1-.55Zm-10,.15a11.24,11.24,0,0,1-6.59,2.41l1.59,1c2.88-.14,6.58-2.2,5.89-2.89l-.89-.48Zm12.85,1.28a8.63,8.63,0,0,1-3.57,2.89l1,.4a11.1,11.1,0,0,0,3.58-3Z"/>
    <path class="c" d="M83.34,81.87a2.53,2.53,0,0,0-1.2.38A8.82,8.82,0,0,0,79,85.84a8.72,8.72,0,0,0,4.77-2.54,1.6,1.6,0,0,0,.41-.9.44.44,0,0,0-.1-.3.94.94,0,0,0-.69-.23Zm26.3,2.82a41.72,41.72,0,0,0-3.41,4.6l.88.94-.48.49a3.26,3.26,0,0,0-1.14,2.1,1.42,1.42,0,0,0,.05.36.93.93,0,0,0,.63.65,2.46,2.46,0,0,0,2-.42,4.6,4.6,0,0,0,1.68-2.89,15.66,15.66,0,0,0,.12-1.87,24.9,24.9,0,0,0-.27-3.3s0-.4-.06-.66Z"/>
  </g>
</svg>
