<svg xmlns="http://www.w3.org/2000/svg" viewBox="0 0 253.87 148.8"><defs><style>.b102c321-cf9e-4ab9-aee7-a1ca6dd30b38,.b220a409-ef84-43a4-b595-31a492733789{fill:#fff;}.aa6ac268-c7c4-4e6e-a882-342ea2c0e0a0,.b892375e-c072-48e1-be35-73414feea611{fill:#203731;}.aa6ac268-c7c4-4e6e-a882-342ea2c0e0a0{fill-opacity:0.94;}.b220a409-ef84-43a4-b595-31a492733789{fill-rule:evenodd;}</style></defs><title>Asset 2</title><g id="fe3e0094-55f8-4592-9b24-2ca6affe5fae" data-name="Layer 2"><g id="ad5c0cb8-3f27-4bc1-83b5-9cca624e5b1a" data-name="Layer 1"><path class="b102c321-cf9e-4ab9-aee7-a1ca6dd30b38" d="M237.09,38.53c-11.23-11.23-27-20.74-45.5-27.55A189.14,189.14,0,0,0,127.36,0c-31,0-63.13,8.23-87.71,22.5C14.44,37.11,0,55.9,0,74.26c0,11.77,5.89,23.88,17,35,11.39,11.36,27.42,21.12,46.33,28.18a185.18,185.18,0,0,0,63.46,11.34,190.73,190.73,0,0,0,64.23-11c18.66-6.81,34.48-16.36,45.49-27.55,11.36-11.35,17.33-23.79,17.33-36s-6-24.63-17.33-36"/><path class="b892375e-c072-48e1-be35-73414feea611" d="M247.1,74.43c0-32.48-53-67.2-119.79-67.2-63.87,0-119.8,35-119.8,67.2s55.93,67.2,119.8,67.2c66.79,0,119.79-34.79,119.79-67.2"/><path class="b102c321-cf9e-4ab9-aee7-a1ca6dd30b38" d="M173.64,39.37v7.05H185c.61,0,1.6.12,1.82.48s.12,1.57-1.41,4c0,0-10.86,18-14.87,24.75L154.66,50.29c-1.34-2-1.15-2.82-1-3.1.29-.54.73-.7,1.64-.75h8.18V39.38H102.54v7.06h7.72a4.54,4.54,0,0,1,3.31,1c1.07,1.08,1.34,3.35,1.34,6.47V79.78L84,39.46H53.53v7.38h10a3,3,0,0,1,2.21.59c.76.77.76,2.67.76,4.64V92.78c0,6.69-.72,8.59-3.37,8.59H53.41v6.51H86.1v-6.59H76.86a5.38,5.38,0,0,1-3.06-.45c-.86-.85-.92-4.63-.92-8V56.93l42.2,50.93h6.6V50.32a3.09,3.09,0,0,1,.7-2.55,3.14,3.14,0,0,1,2.4-1.11h6.49c3,0,5,3.66,7,7.14L156.2,84.14V97c0,4.37-1.95,4.37-2.78,4.37H146V108h38.81V101.3H177.7c-2.74-.15-3.69-.94-3.58-5V83L193,51.2c2.67-4.22,3-4.63,6.69-4.59h6.42V39.52h-32.4"/><path class="b892375e-c072-48e1-be35-73414feea611" d="M175.3,41.49V45h9.43s7-.58,2,7.18L170.44,79.37,153,51.57c-4.51-7.14,2.21-6.55,2.21-6.55h6.36V41.49H104.07V45H110c5.71,0,6.38,3.68,6.38,9.19v31.1L82.84,41.49H55v3.86h8.26c5.26,0,4.68,4.14,4.76,8.19V93c0,5.51-.24,10.35-5.14,10.35h-8v3h29.2v-3.09H76.58c-5,0-5.75-.74-5.75-10.32V51.8l44.66,54.68h3.6V53.89c0-5.51.1-8.56,5.22-8.77h7.27c3.87.27,5.91,4.76,8.67,9.48l17.4,29.29V97.27c0,4.16-1.64,6.13-4.55,6.13h-5.64v3.07h35.28v-3.1h-5.36c-4.29-.22-5.42-2.44-5.35-6.81V82.79l17.83-30.13c4-6,4.21-7.56,9.59-7.48h4.64V41.61H175.2"/><path class="aa6ac268-c7c4-4e6e-a882-342ea2c0e0a0" d="M154.45,107.05c0-8-12-16.52-27.14-16.52-14.44-.07-27.14,8.49-27.14,16.52s12.7,16.46,27.14,16.46c15.07,0,27.14-8.55,27.14-16.52"/><path class="b102c321-cf9e-4ab9-aee7-a1ca6dd30b38" d="M152.36,106.14c-.9-6.79-11.86-13.81-25.34-13.81-12.94,0-24.38,7-25.32,13.81h50.5"/><path class="b102c321-cf9e-4ab9-aee7-a1ca6dd30b38" d="M101.85,107.82c.92,6.81,12.36,13.82,25.27,13.82,13.52,0,24.45-7,25.33-13.82H102"/><path class="b892375e-c072-48e1-be35-73414feea611" d="M118.13,112.83a5.9,5.9,0,1,1,0-11.77h18.36a5.9,5.9,0,1,1,0,11.77H118.13"/><path class="b102c321-cf9e-4ab9-aee7-a1ca6dd30b38" d="M137.33,104.48a2.08,2.08,0,0,0-.13-.52h-1.73l.16.56a8.27,8.27,0,0,1,.28,1.7h-3.09a11.78,11.78,0,0,0-.25-1.56H130.9a9,9,0,0,1,.32,1.54h-3.13v-1.43h-1.74v1.45h-3.13a8.85,8.85,0,0,1,.32-1.53h-1.68a10.13,10.13,0,0,0-.24,1.56h-3.1a11,11,0,0,1,.29-1.7A5.15,5.15,0,0,1,119,104h-1.74l-.12.52a11.52,11.52,0,0,0-.29,2.68,12,12,0,0,0,.4,3.1H119a10.42,10.42,0,0,1-.44-2.29h3.1a10.92,10.92,0,0,0,.25,1.62h1.65a9.51,9.51,0,0,1-.31-1.59h3.15v1.53h1.74V108h3.14a8.6,8.6,0,0,1-.31,1.59h1.65a9.75,9.75,0,0,0,.25-1.62h3.11a11,11,0,0,1-.44,2.29h1.72a12.36,12.36,0,0,0,.11-5.78"/><path class="b892375e-c072-48e1-be35-73414feea611" d="M206.21,62.73c-1.81-3.38-6.56-5.35-13.75-5.59a46.15,46.15,0,0,0-12.68,1H93.38l4.42-8.21H76.51L61.9,77.4c-1.19,1.74-1.34,1.85-2.57,1.71A4.46,4.46,0,0,1,58.6,79a16.07,16.07,0,0,1,1.4-2.7l5.09-8.39H45.27l-.6.81c-5.89,7.52-7.47,13.79-5.22,18S47,93,55.4,93s13.77-.45,18-3.22h43l11.1-20.7h9.57l-11,20.58h22l6.88-12.94h9.37l-.48,1.18c-1.7,4.17-.78,6.93.28,8.52,2.09,3.09,6.56,4.67,13.27,4.67,11.35,0,18.58-1.07,22.08-6.34,2.87-4.35,3.31-8.35,1.21-11.19A7.56,7.56,0,0,0,198,71.49h6.27l.57-.94c2.21-3.55,1.65-6.22.79-7.8"/><path class="b102c321-cf9e-4ab9-aee7-a1ca6dd30b38" d="M61.35,69.84H46.09C35.81,84,40.87,91.08,55.6,91c13.38-.08,18.16-.94,23.75-11.19l15-28H77.52L63.4,78.39c-1.34,1.94-2.06,2.9-4.45,2.68-3.82-.42-2.77-2.68-.85-5.89l3.27-5.35"/><polyline class="b220a409-ef84-43a4-b595-31a492733789" points="129.8 87.78 147.29 87.78 158.31 67.28 166.34 67.28 170.24 60.22 134.88 60.22 131.14 67.12 140.91 67.12 129.87 87.78"/><path class="b220a409-ef84-43a4-b595-31a492733789" d="M166.13,78.6c-2.68,6.55,1.34,10.48,11.72,10.48,11.24,0,17.55-1,20.42-5.47,2-3,3.09-6.42,1.26-8.94-1.26-1.79-5.77-3.36-10.06-4.16-2.68-.54-3.68-1.19-3.5-2.8s2-1.8,3.35-1.4a2.66,2.66,0,0,1,1.4,3.13h13c3.52-5.69-.54-10-11.3-10.4-13.32-.44-18.44,2-21.12,8.81-1.34,3.14-1.12,5.55.83,6.85,2.45,1.59,9.19,2.67,11.19,3.34a1.81,1.81,0,0,1,.69,2.83,3,3,0,0,1-3.9.56c-.85-.64-.7-1.45-1-2.83h-13"/><polyline class="b220a409-ef84-43a4-b595-31a492733789" points="82.23 87.78 115.68 87.78 119.42 80.81 101.12 80.81 102.89 77.47 119.09 77.47 122.91 70.32 107.68 70.32 109.2 67.11 125.78 67.11 129.5 60.14 97.03 60.14 82.22 87.81"/></g></g></svg>