<svg xmlns="http://www.w3.org/2000/svg" viewBox="0 0 19.69 38.07"><title>FB</title><g id="b447a580-d95a-41bf-bd08-10f5405b3c87" data-name="Layer 2"><g id="eec247f0-71c1-46d9-b7e1-897971281da5" data-name="Layer 1"><path d="M12.86,38.07V20.72h2c1.1,0,2.2,0,3.3,0,.17,0,.47-.21.49-.36.3-2.11.57-4.22.85-6.42H12.93c0-1.87-.1-3.67,0-5.46a2.07,2.07,0,0,1,2.17-2c1-.1,2.07-.09,3.1-.12h1.46v-6c-.32,0-.64-.1-1-.12-2.44-.11-4.89-.44-7.29.29a7.57,7.57,0,0,0-5.5,6.82c-.13,1.94-.1,3.89-.13,5.84,0,.25,0,.49,0,.8H0v6.77H5.75V38Z"/></g></g></svg>