<svg xmlns="http://www.w3.org/2000/svg" viewBox="0 0 509.28 63.87"><defs></defs><title>Asset 1</title><g id="f4a83a76-f0b4-460f-8b22-490e198bef97" data-name="Layer 2"><g id="b956328e-cd7a-49fb-ba61-42105763906d" data-name="Layer 1"><path class="f2d07898-f914-4c09-acf2-9164fc07ca0a" d="M34.3,63.87a2.81,2.81,0,0,0,.79-1.8,3.86,3.86,0,0,0-1.65-2.66h0L30.7,57l-1.15-1c-.63-.57-1.44-1.37-2.45-2.37-.62-.63-1.61-1.66-3-3.1a90.56,90.56,0,0,1-7.06-8.71,69.64,69.64,0,0,1-5.33-9.07h0l1.88-.72c1.1-.44,2.24-.9,3.42-1.41s2.31-1,3.42-1.55q10.08-5.18,10.08-10.8,0-4.38-6.12-10A20,20,0,0,0,19.54,5a51.54,51.54,0,0,0-6.73-2.7A17.2,17.2,0,0,0,8,1.45a8.22,8.22,0,0,0-2.56.39,7.46,7.46,0,0,0-1.94.94A3,3,0,0,0,2.48,4a3.17,3.17,0,0,0-.29,1.26,1,1,0,0,0,.36.87h0L4.92,7.42l.29.15,1.23.79a17.24,17.24,0,0,0-2.06,5.15A110.15,110.15,0,0,0,2.84,25h0l-.65,6.12H1.54a2.21,2.21,0,0,0-1.33.94,1.18,1.18,0,0,0,0,1.29h0L1,34.49l.8.72.14.15-.22,2.88L1.61,39,.75,47.24v3.89a7.38,7.38,0,0,0,.43,3A1.73,1.73,0,0,0,2.91,55a10.18,10.18,0,0,0,2.37-.36,18.4,18.4,0,0,0,1.8-.5,1.8,1.8,0,0,0,1-1.87c0-.34-.05-.91-.14-1.73s-.19-1.78-.29-2.88c0-.48,0-1.06,0-1.73s0-1.44,0-2.3h0V41.19l.15-2.3.07-.8,1.29,2.52a58.38,58.38,0,0,0,9.18,12.82,47.36,47.36,0,0,0,11.7,8.42l2.09,1.08C33,63.32,33.72,63.63,34.3,63.87ZM8.81,30c-.19,0-.29-.07-.29-.22a29.89,29.89,0,0,1,.26-3.34c.16-1.42.54-3.83,1.11-7.24.1-.72.23-1.54.4-2.45s.3-1.53.39-1.87h0l.44-2.23.28-1.08.08-.51.21-.72,2,.58a32.56,32.56,0,0,1,6.19,2.52,14,14,0,0,1,4.18,3.17,5.12,5.12,0,0,1,1.36,3.24,4.22,4.22,0,0,1-1.72,3.31,28,28,0,0,1-5.37,3.42,54.5,54.5,0,0,1-8,3Zm37,24.77q5.76,0,11.23-4.47A20.34,20.34,0,0,0,61.7,45a23.2,23.2,0,0,0,2.55-7,22.93,22.93,0,0,0,.51-4.68q0-8.72-7.56-8.71h-.83a5,5,0,0,0-1.12.14h0l-3.6.72A2.25,2.25,0,0,0,52,24.27a2.06,2.06,0,0,0-.79-1.66,2.78,2.78,0,0,0-1.8-.64,6,6,0,0,0-3.28,1.18,29.89,29.89,0,0,0-4.57,4.22,10.57,10.57,0,0,0-1.8,2.8h0l-.65,1.44c-.62,1.83-1.08,3.06-1.36,3.71a11.45,11.45,0,0,1-1.12,2,12.49,12.49,0,0,1-1,1.33l-.12.11-.39.39q-2.3,2.24-4.25,4.18a4.88,4.88,0,0,0-.79.93,4.29,4.29,0,0,0-.72,2,1.12,1.12,0,0,0,.94,1.22,1.33,1.33,0,0,0,1.15-.28,19.4,19.4,0,0,0,2.16-2.31h0l1.22-1.22-.21,1.15a9.93,9.93,0,0,0-.07,1.37,7.48,7.48,0,0,0,2,5.69q2.05,1.93,6.87,2.73A13.18,13.18,0,0,0,45.82,54.8Zm2.45-4.11q-3.39,0-4.68-4.75a7.22,7.22,0,0,1-.29-2.23A16.16,16.16,0,0,1,44.06,39a12.26,12.26,0,0,1,1.22-3.13,9,9,0,0,1,2.2-1.69,4.1,4.1,0,0,0,.79-.65c.33-.34.91-1,1.73-2a3.86,3.86,0,0,1,1.44-1,5.15,5.15,0,0,1,2-.36,13.36,13.36,0,0,1,2.41.33,4.9,4.9,0,0,1,3,2.23,8.76,8.76,0,0,1,1.33,5.08,15.21,15.21,0,0,1-.29,2.95,11,11,0,0,1-5.9,8A12.38,12.38,0,0,1,48.27,50.69Zm34.2,3.24a14,14,0,0,0,4.75-.82,14.26,14.26,0,0,0,3.89-2.06A36,36,0,0,0,94.82,48a3,3,0,0,0,1-1.87,2.58,2.58,0,0,0-.22-1,1.25,1.25,0,0,0-.79-.75,1.05,1.05,0,0,0-1,.07h0l-1.08.79a21,21,0,0,1-3.34,3A10.32,10.32,0,0,1,86,49a12.68,12.68,0,0,1-1.44.07,7.93,7.93,0,0,1-5-1.44A6.34,6.34,0,0,1,77,42.49a5.4,5.4,0,0,1,1.87-4.25,8.71,8.71,0,0,1,1.58-1.12c.77-.45,1.85-1,3.24-1.76h0l3.24-1.8q3-1.8,4.75-3A19.72,19.72,0,0,0,94,28.7a2.76,2.76,0,0,0,1-2,2,2,0,0,0-.44-1.23,4.17,4.17,0,0,0-1.51-1.18,5.46,5.46,0,0,0-2.3-.4,12.48,12.48,0,0,0-6,2.09A62.92,62.92,0,0,0,74,34.71Q70.6,37.95,67.56,41t-3,3.53c.24.34.48.65.72.94h0l.65.93a1.06,1.06,0,0,0,.57.22h0l2.31-2.38,1.15-1.29-.22,1.29s0,.44.08,1.16a11.63,11.63,0,0,0,.14,1.44,7.23,7.23,0,0,0,2.63,4.35,13.55,13.55,0,0,0,5.94,2.34A20.15,20.15,0,0,0,82.47,53.93Zm19.29,3.89a3.4,3.4,0,0,0,1.66-.43,15.13,15.13,0,0,0,5.11-5.11h0L111.34,48l.36-.58,1.3-2a26.8,26.8,0,0,1,2.37,2.23c.48.53.91,1.06,1.3,1.58,2.25,3.41,4.37,5.12,6.33,5.12a9.6,9.6,0,0,0,2.88-.58h0l1.73-1,.29-.21,3.24-2.81a24.17,24.17,0,0,0,2.41-2.34,2.27,2.27,0,0,0,.54-1.41,2.2,2.2,0,0,0-.72-1.87,1.44,1.44,0,0,0-.72-.29,1.18,1.18,0,0,0-.86.36,14,14,0,0,0-1.8,2.24,3.08,3.08,0,0,1-2.59,1.8,2,2,0,0,1-1.23-.44,9.41,9.41,0,0,1-1.37-1.72q-2.16-3.54-3.45-5.22a23.92,23.92,0,0,0-3.17-3.35h0l.65-.87.5-.64.07-.22,2.45-4.25A16.92,16.92,0,0,0,123.51,28a9.43,9.43,0,0,0,.43-2.73,3.41,3.41,0,0,0-.65-2.31,2.12,2.12,0,0,0-1.65-.72,2.15,2.15,0,0,0-1.52.72h0l-1.51,4.25a25.59,25.59,0,0,1-1.29,2.67c-.63,1.15-1.37,2.37-2.24,3.67h0l-1.15,1.73a3,3,0,0,0-1.37-.36,2.87,2.87,0,0,0-2,.79,3.91,3.91,0,0,0-1.15,2.16h0L109.25,40v2.52q0,3.52-4.61,9.07h0l-.57.72a3.77,3.77,0,0,1-.58-1.87,22,22,0,0,1,.51-3.6h0l1-5.12.22-.93c.62-2.93,1.19-5.34,1.69-7.24s1.12-3.8,1.84-5.72h0l1.87-5.19.22-.79.79-2.73c.43-1.68.69-2.78.79-3.28s.2-1.13.32-1.87.28-1.69.47-2.85a34.74,34.74,0,0,0,.15-3.52,10.18,10.18,0,0,0-.76-4.36A4.89,4.89,0,0,0,110.48.94a2.92,2.92,0,0,0-1.3-.29c-1,0-1.49.22-1.58.65h0l-1.23,6.34q-1.58,8.13-2.09,12.74-1.44,10.88-2,13.29A16.92,16.92,0,0,1,99.53,39h0l-1.22,1.44L95.5,43.35a5.49,5.49,0,0,0-1.3,2.38,1.23,1.23,0,0,0,.22.86,1.07,1.07,0,0,0,.79.5,1.79,1.79,0,0,0,1.51-.64,17.17,17.17,0,0,0,1.59-1.73h0l.36-.43,1.58-1.52L100,43.93l-.21,1-.22,1.3c-.29,1.68-.5,3-.65,4.07a19.39,19.39,0,0,0-.21,2.48A21.08,21.08,0,0,0,99,55.84C99.21,57.16,100.13,57.82,101.76,57.82Zm72.87-2.09a11,11,0,0,0,3.09-.57,7.67,7.67,0,0,0,1.8-1c.58-.91.72-1.56.44-1.94a12.65,12.65,0,0,1-1.34-2,4.28,4.28,0,0,1-.32-1.77,26,26,0,0,1,.86-5h0l1.23-4a35.25,35.25,0,0,1,2.45-5.83c.81-1.58,1.51-2.86,2.08-3.82.39-.57.84-1.22,1.37-1.94q3.75-4.68,5.51-7t3.06-4.25c1.06-1.59,1.79-2.71,2.2-3.39A16,16,0,0,0,198.17,11,16.08,16.08,0,0,0,200,4.54,3.6,3.6,0,0,0,197.09.73a57.14,57.14,0,0,0-6.66,8Q187.52,13,180.32,25.21h0l-2.38,4.1-.36-.5-.58-1q-1.08-1.87-1.8-3.39c-.48-1-.91-2-1.29-2.95a72.3,72.3,0,0,1-2.59-7,13.39,13.39,0,0,1-.58-3.46q0-5.4-.14-6.37a3.85,3.85,0,0,0-1.08-2h0l-1.37-.94a3.81,3.81,0,0,0-1.73-.43A4.62,4.62,0,0,0,162.24,4a4.83,4.83,0,0,0-.5,2.16,14.73,14.73,0,0,0,.9,4.24c.6,1.83,1.57,4.25,2.92,7.28h0l3.6,8.06A42.87,42.87,0,0,0,172,30.5a19.11,19.11,0,0,0,3,3.2h0l-1.23,3.89c-.76,2.26-1.63,4.73-2.59,7.42a19.28,19.28,0,0,0-1,6,5,5,0,0,0,1.16,3.46A4.19,4.19,0,0,0,174.63,55.73Zm35.71-.93q5.76,0,11.23-4.47A20.34,20.34,0,0,0,226.22,45a23.2,23.2,0,0,0,2.55-7,22.93,22.93,0,0,0,.51-4.68q0-8.72-7.56-8.71h-.83a5,5,0,0,0-1.12.14h0l-3.6.72a2.25,2.25,0,0,0,.36-1.22,2.06,2.06,0,0,0-.79-1.66,2.78,2.78,0,0,0-1.8-.64,6,6,0,0,0-3.28,1.18,29.89,29.89,0,0,0-4.57,4.22,10.57,10.57,0,0,0-1.8,2.8h0l-.65,1.44c-.62,1.83-1.08,3.06-1.36,3.71a11.45,11.45,0,0,1-1.12,2,12.49,12.49,0,0,1-1,1.33l-.12.11-.39.39q-2.3,2.24-4.25,4.18a4.88,4.88,0,0,0-.79.93,4.29,4.29,0,0,0-.72,2,1.12,1.12,0,0,0,.94,1.22,1.33,1.33,0,0,0,1.15-.28,19.4,19.4,0,0,0,2.16-2.31h0l1.22-1.22-.21,1.15a9.93,9.93,0,0,0-.07,1.37,7.48,7.48,0,0,0,2.05,5.69q2.06,1.93,6.87,2.73A13.18,13.18,0,0,0,210.34,54.8Zm2.45-4.11q-3.39,0-4.68-4.75a7.22,7.22,0,0,1-.29-2.23,16.16,16.16,0,0,1,.76-4.68,12.26,12.26,0,0,1,1.22-3.13,9,9,0,0,1,2.2-1.69,4.1,4.1,0,0,0,.79-.65c.33-.34.91-1,1.73-2a3.86,3.86,0,0,1,1.44-1,5.15,5.15,0,0,1,2-.36,13.36,13.36,0,0,1,2.41.33,4.9,4.9,0,0,1,3,2.23,8.76,8.76,0,0,1,1.33,5.08,15.21,15.21,0,0,1-.29,2.95,11,11,0,0,1-5.9,8A12.38,12.38,0,0,1,212.79,50.69Zm25.05,3.39A8.59,8.59,0,0,0,242,52.64,29.94,29.94,0,0,0,246,49.83a18.24,18.24,0,0,0,3-3.24h0l.65,1.51q1.88,4.76,5,4.75a7.32,7.32,0,0,0,4.18-1.58,30.73,30.73,0,0,0,3.71-2.84,2.82,2.82,0,0,0,1-1.91,2.7,2.7,0,0,0-.25-1,1.42,1.42,0,0,0-.9-.79.6.6,0,0,0-.51.07h0l-.93.79-1,.87-.58.5-2.3,1.8h-.22a.83.83,0,0,1-.72-.43,6,6,0,0,1-.9-2,20.22,20.22,0,0,1-.39-2.7h0V41.69c0-.38.14-1,.28-1.72h0V38c0-1.15-.26-1.79-.79-1.91a14.11,14.11,0,0,0-2.73-.18h0l-.8.08-.86,2.52a19.94,19.94,0,0,1-1,2.08c-.32.53-.66,1.08-1.05,1.66a46,46,0,0,1-2.95,3.64A8.74,8.74,0,0,1,243,47.45a2,2,0,0,1-1,.29q-1.87,0-2.31-2.88a6.94,6.94,0,0,0-.07-.79c0-.14,0-.65.07-1.51s.08-1.68.08-2.45a13.69,13.69,0,0,1,.32-3c.22-1,.54-2.19,1-3.63.19-.68.45-1.42.76-2.24s.63-1.58,1-2.3h0l-.86-.22c-.87-.19-1.8-.42-2.81-.68a10.27,10.27,0,0,0-2.16-.4c-.72,0-1.2.58-1.44,1.73s-.43,2.13-.58,2.92a19.41,19.41,0,0,1-.79,2.84A28.7,28.7,0,0,1,233,38c-.58,1.2-1,2.09-1.37,2.67a10,10,0,0,1-1,1.44h0l-1.65,1.72-.15.22A5.56,5.56,0,0,0,228,45.8c-.19.72.12,1.2.94,1.44a1.35,1.35,0,0,0,1.18-.33,18.53,18.53,0,0,0,2.06-2h0l1.29-1.44.22,4.11.43,2.8C234.68,52.83,235.92,54.08,237.84,54.08Zm38.6,2.81a10.18,10.18,0,0,0,3.16-.54,30.45,30.45,0,0,0,4.11-1.77,25.28,25.28,0,0,0,5.4-3.45q4.17-3.83,4.17-4.9a2.91,2.91,0,0,0-.5-1.22c-.58-.92-1.08-1.16-1.51-.72h0l-2.81,3a15.79,15.79,0,0,1-6.41,4.25h0l-2.09.64.44-1.8.14-.5,1.37-4.61.29-.86c.48-1.87.82-3.45,1-4.72a20.15,20.15,0,0,0,.32-3.42,14.52,14.52,0,0,0-.14-1.8,10.3,10.3,0,0,0-2.3-5.65,5.51,5.51,0,0,0-4.18-2,5.1,5.1,0,0,0-2,.43h0l-2.59,1.66c-1.34.91-2,1.61-2,2.09s.4,1,1.22,1.94h0l.5.43-1.15,1.51Q269.45,37,268,38.67a19.44,19.44,0,0,1-1.94,2.16h0l-3.53,3.46c-.24.43-.41.74-.5.93a5.18,5.18,0,0,0-.22.94c-.19.67.14,1.1,1,1.29.62.1,1.45-.32,2.48-1.26s3.06-3.13,6.09-6.58h0l3.52-3.39c1.73.39,2.6,1.63,2.6,3.75a23.1,23.1,0,0,1-1.73,7.48h0l-1.51,3.82-.58,1.66a6.14,6.14,0,0,0-.29,1.8Q273.41,56.89,276.44,56.89ZM323,62.07a19.12,19.12,0,0,0,3.71-.5q2.34-.51,5.5-1.37c.82-.24,1.58-.49,2.27-.76l1.41-.54q1.57-.72,3.81-2a11.47,11.47,0,0,0,3-2.12h0l2.81-3.17L350,47.17a4,4,0,0,0,.36-1.66,2.13,2.13,0,0,0-.47-1.37c-.31-.38-.59-.45-.83-.21h0l-1.65,1.58-.65.65.14-1.37a11.23,11.23,0,0,0-1.47-5.94,20.69,20.69,0,0,0-5.58-5.36l-5.47-4a13.79,13.79,0,0,1-1.59-1.22,23.62,23.62,0,0,1-5-5.58,10.06,10.06,0,0,1-1.62-5.15A7.53,7.53,0,0,1,328,12.61a11.42,11.42,0,0,1,3.71-3.14,6.59,6.59,0,0,1,3.67-.68h0l-.86,2a22,22,0,0,0,5.4-1.16,25.68,25.68,0,0,0,6.84-3.31,4.38,4.38,0,0,0,1.87-3.45A3,3,0,0,0,347.9.76,2.19,2.19,0,0,0,346.06,0a12.11,12.11,0,0,0-2.41.25c-.84.17-1.72.37-2.63.61h0l-6.41,1.8L331.8,3.89A25.52,25.52,0,0,0,322.37,12a16.49,16.49,0,0,0-3,9.36,14,14,0,0,0,4.82,10.73q1.95,1.8,3.39,2.88A38.54,38.54,0,0,0,331,37.45h0l6.48,4.17a13.63,13.63,0,0,1,2.34,2.2,4.8,4.8,0,0,1,.83,1.62,2.18,2.18,0,0,1-.25,1.83,2.57,2.57,0,0,1-1.55,1.19h0l-5,1.3a45.43,45.43,0,0,0-9.14,3h0l-.29.14-3.75,1.8a20,20,0,0,0-2.88,1.73,1.46,1.46,0,0,0-.57,1.23A3.32,3.32,0,0,0,318.41,60a9.7,9.7,0,0,0,2.16,1.62A5.36,5.36,0,0,0,323,62.07Zm54.72-4.32c1.25,0,2-.36,2.3-1.08h0l4.11-7.13L385,48.1A21.25,21.25,0,0,1,388,44.57a6.3,6.3,0,0,1,4.25-1.94q3.24,0,5.26,4.25h0l1.15,2.37.5,1.08q2.24,4.19,5.26,4.18c1.73,0,3.86-1,6.41-2.88A22.54,22.54,0,0,0,415,47.74a7.86,7.86,0,0,0,1.48-3.67,10.58,10.58,0,0,0-1.37-.18q-.58,0-.72.18h0l-2.74,2.81a22.19,22.19,0,0,1-3.09,2.48A9.68,9.68,0,0,1,406,50.48c-.77.19-1.32-.53-1.66-2.16h0l-.36-1.8-.5-2.67-.51-2q-2.44-8.51-6.62-8.5-2.31,0-6.27,2.81l-1.83,1.55c-.31.26-.71.63-1.19,1.11a45.51,45.51,0,0,0-4.39,5h0l.72-2c1-3.32,1.73-6,2.16-8.07h0l.93-5.54a4.51,4.51,0,0,0,.08-1h0V25.42a1.74,1.74,0,0,0-.54-1,1.61,1.61,0,0,0-1.05-.32,4.54,4.54,0,0,0-2,.64,11.81,11.81,0,0,0-2.67,2.09h0l-2.73,2.67-.36.36c-.72.76-1.54,1.71-2.45,2.84s-2,2.46-3.1,4h0l-1.8,2.44-.65.87.36-1.37.15-1,.07-.36.58-5.18a12.79,12.79,0,0,0,.14-1.51h0V28.48a10.16,10.16,0,0,0-.18-1.65c-.12-.7-.76-1-1.91-1a8.72,8.72,0,0,0-3.24.79,5.56,5.56,0,0,0-1.47.94,19.61,19.61,0,0,0-2.13,2.3h0l-6.33,7.35-.15.21c-1.53,1.64-2.69,2.91-3.45,3.82-2.36,2.74-3.63,4.7-3.82,5.9a4.61,4.61,0,0,1,1.44.36q.57,0,3.24-2.73l6-6.27h0l1.87-1.94A12.3,12.3,0,0,1,361,40.4a17.42,17.42,0,0,1-1,5.4l-1.37,3.89a12.12,12.12,0,0,0-.86,3.6c0,.81.27,1.32.82,1.51a12.45,12.45,0,0,0,3.35.29h.36l.94-1.44,1.58-2.45q2.44-3.68,4.14-5.94t4.57-5.51h0l1.8-1.94,1.3-1.52a15.51,15.51,0,0,1,.72,4.47h0V42.2c-.05.53-.07,1.19-.07,2a7.54,7.54,0,0,1-.15,1.76,62.07,62.07,0,0,0-1.29,9.15,4,4,0,0,0,.39,2.12A1.65,1.65,0,0,0,377.67,57.75Zm53.57-39.82a5.9,5.9,0,0,0,1.51-.21,6.56,6.56,0,0,0,4.61-6.27,6.29,6.29,0,0,0-.44-2.37,3.36,3.36,0,0,0-3.31-2.59,3.25,3.25,0,0,0-1.8.5A10,10,0,0,0,429,9.58a11.46,11.46,0,0,0-1.66,2.77,4.24,4.24,0,0,0-.25,2.06A3.79,3.79,0,0,0,431.24,17.93Zm2.37,38.88a16.86,16.86,0,0,0,5.91-1.58,21.73,21.73,0,0,0,5.76-3.6h0l2.52-2.16c2-2.11,2.95-3.55,2.95-4.32a1.09,1.09,0,0,0-.36-.79,1.57,1.57,0,0,0-1-.58.59.59,0,0,0-.58.29,13.33,13.33,0,0,1-2,2.16c-.91.82-2,1.7-3.31,2.66A6.17,6.17,0,0,1,440,50.33q-3.31,0-5.4-6.62h0l-.36-1.37q-.94-7.48-1.15-8.42c-.44-1.92-2-2.88-4.61-2.88a3.72,3.72,0,0,0-2.41.83,43.37,43.37,0,0,0-4.14,4.35A62.81,62.81,0,0,1,416,42.13h0L414,44.21a2.2,2.2,0,0,0-.8,1.66,1.45,1.45,0,0,0,2.09,1.37A6.42,6.42,0,0,0,417,45.91c.77-.75,2.57-2.63,5.4-5.66h0L423.75,39c.29,1.63.59,3,.9,4.18s.71,2.37,1.19,3.67a29.68,29.68,0,0,0,3.63,7.74A5.08,5.08,0,0,0,433.61,56.81Zm32.55-1.51a19.9,19.9,0,0,0,6.76-1.44,9.07,9.07,0,0,0,1.26-.54,8.29,8.29,0,0,0,1.05-.68h0l3.89-3c2-1.53,3-2.76,3-3.67a1.64,1.64,0,0,0-.58-1.15c-.62-.53-1.08-.65-1.36-.36h0l-3.32,2.88a5.46,5.46,0,0,1-1.72,1.15,10.52,10.52,0,0,1-4.68,1.44q-4.91,0-6.63-9.65c-.29-1.72-.45-2.82-.5-3.27s-.07-1.29-.07-2.49V32.84l.64-1.15.72-1.23a84.42,84.42,0,0,0,4.43-9.29,39.24,39.24,0,0,0,2.2-7.34,51.66,51.66,0,0,0,.93-7.2A11.08,11.08,0,0,0,471.92,4c-.58-2.5-1.68-3.75-3.32-3.75a2.79,2.79,0,0,0-1,.22,15.41,15.41,0,0,0-3.17,2.23,15.49,15.49,0,0,0-4.86,7.85q-1.49,5-2.63,18.93h0l-.65,7.35-1.58,1.94L450,43.28a7.17,7.17,0,0,0-1.66,3.81,6.05,6.05,0,0,0,2.52-.93A19.28,19.28,0,0,0,455,42.41h0l1.44-1.36-.08.86v.86l.08,1.88q.57,5.18,3,7.92A8.53,8.53,0,0,0,466.16,55.3ZM462,28.16l.07-.43.43-3.39.8-4.89a47.46,47.46,0,0,1,2.37-8.5c.53-1.2,1.18-1.75,2-1.66s1.32.53,1.22,1.3a8.12,8.12,0,0,1-.36,2.3h0l-.86,3-.51,1.44a48.86,48.86,0,0,1-2.34,6.08A31.37,31.37,0,0,1,462,28.16Zm31.46,27.5a16,16,0,0,0,3.82-.5,13.73,13.73,0,0,0,4-1.73,31.44,31.44,0,0,0,6.16-4.86,8.47,8.47,0,0,0,1.9-4.36,3.83,3.83,0,0,0-1.22-.28c-.43,0-1,.38-1.84,1.15L504,47.31a12.35,12.35,0,0,1-4.11,2.95,7.57,7.57,0,0,1-3.45.79,6,6,0,0,1-4.25-1.51,5,5,0,0,1-1.66-3.89,4.78,4.78,0,0,1,.07-1.36h0l.29-.08,1.44-.43A32.43,32.43,0,0,0,501,40.11a15.66,15.66,0,0,0,5.12-4.82,20.25,20.25,0,0,0,1.18-2.2,8.41,8.41,0,0,0,.54-1.48,4.25,4.25,0,0,0,.15-1.08,3.24,3.24,0,0,0-.87-2.3,3.74,3.74,0,0,0-2.52-1.08,11.64,11.64,0,0,0-3.78.83,27.4,27.4,0,0,0-5.5,3,10.46,10.46,0,0,0-1.23.75c-.29.22-.6.47-.93.76h0l-.58.36-4.46,3.74a79.85,79.85,0,0,0-6.77,6.12c-1.15,1.25-1.73,2.26-1.73,3a1.86,1.86,0,0,0,.22.86,1.17,1.17,0,0,0,1.58.65h0l1.94-2.09,1.44-1.51a10.44,10.44,0,0,0-.61,1.8,9.14,9.14,0,0,0-.11,1.58,11.17,11.17,0,0,0,.15,1.51,8.23,8.23,0,0,0,3,5.19A9.68,9.68,0,0,0,493.44,55.66ZM491.5,41.19c.38-.72,1-1.66,1.73-2.81a2.52,2.52,0,0,1,.5-.65h0l3.1-2.73a21.76,21.76,0,0,1,3-2.45,3.88,3.88,0,0,1,2.05-.65,3.77,3.77,0,0,1,1.87.58A9.83,9.83,0,0,1,501.62,36a17.6,17.6,0,0,1-4.14,3A22.3,22.3,0,0,1,491.5,41.19Z"/></g></g></svg>