<svg xmlns="http://www.w3.org/2000/svg" viewBox="0 0 35.04 35.04"><title>IG</title><g id="e6f1e451-5373-48b5-be89-817c77db99d6" data-name="Layer 2"><g id="b296579e-6ac5-4254-bb66-7a39b9f24b9b" data-name="Layer 1"><path d="M17.52,26.24a8.73,8.73,0,0,1,0-17.45h0a8.73,8.73,0,0,1,0,17.45Zm0-15.06h0a6.34,6.34,0,0,0,0,12.68h0a6.34,6.34,0,0,0,0-12.68Z"/><circle cx="27.26" cy="8.42" r="1.81"/><path d="M8.79,35A8.75,8.75,0,0,1,.05,26.31L0,8.82A8.75,8.75,0,0,1,8.73.05L26.22,0h0A8.76,8.76,0,0,1,35,8.73l0,17.49A8.76,8.76,0,0,1,26.31,35L8.82,35ZM8.73,2.43A6.36,6.36,0,0,0,2.39,8.81l0,17.5a6.37,6.37,0,0,0,6.36,6.34h0l17.5,0a6.38,6.38,0,0,0,6.34-6.38l0-17.5a6.37,6.37,0,0,0-6.37-6.34h0Z"/></g></g></svg>