<svg xmlns="http://www.w3.org/2000/svg" viewBox="0 0 24.59 25.83"><defs><style>.a4bd9850-4b00-45f7-b509-77e0dc767010{fill:#0d1c75;}</style></defs><title>Phone</title><g id="f6269e41-9101-4675-a536-ad2f45d039ef" data-name="Layer 2"><g id="f8352d98-582c-4454-8201-e6465674fd6e" data-name="Layer 1"><path class="a4bd9850-4b00-45f7-b509-77e0dc767010" d="M23.91,18.64c-1.32-1.11-2.71-2.2-4.06-3.27A2.33,2.33,0,0,0,17.93,15a2.71,2.71,0,0,0-1.18,1,3,3,0,0,1-2.68,1.34A4,4,0,0,1,11.7,16L9.39,13.55a4.34,4.34,0,0,1-1.29-2.5A3.31,3.31,0,0,1,9.37,8.24,2.85,2.85,0,0,0,10.28,7,2.71,2.71,0,0,0,10,5C9,3.56,7.91,2.1,6.86.71A2,2,0,0,0,4.74.09,4,4,0,0,0,3.18,1.18C1.24,3.14-.42,5.82.1,9.1.53,11.76,2.3,14.33,5,17.18l3.23,3.39c2.71,2.85,5.16,4.71,7.69,5.17s5.28-.77,7.53-3.24a4.13,4.13,0,0,0,1-1.64,2.29,2.29,0,0,0-.59-2.22"/></g></g></svg>