<svg xmlns="http://www.w3.org/2000/svg" viewBox="0 0 29.54 42.14"><title>Printrest</title><g id="b2db1aff-b0cf-4c04-a1fe-b1b2fe7289b3" data-name="Layer 2"><g id="a2bd5fb1-ed0e-4983-a007-6223151b7cd2" data-name="Layer 1"><path d="M9.25,36c-.8,3.6,2.2-8,3.1-11a11.36,11.36,0,0,0,.93,1,7.18,7.18,0,0,0,6,1.51,10.66,10.66,0,0,0,7.36-4.71,16.17,16.17,0,0,0,2.67-7.17,15,15,0,0,0,.05-4.87,12.41,12.41,0,0,0-7.82-9.55,16.17,16.17,0,0,0-9.6-.78A14.39,14.39,0,0,0,2.21,6.69a12.35,12.35,0,0,0-1.56,11A6.71,6.71,0,0,0,4.38,22c.65.28,1.06.09,1.23-.58s.28-1.14.44-1.7a1.18,1.18,0,0,0-.26-1.11,10.44,10.44,0,0,1-1-1.52,7.18,7.18,0,0,1-.52-3.78,10,10,0,0,1,4.2-7.54,11.14,11.14,0,0,1,9.86-1.55,7.41,7.41,0,0,1,5.7,6.65,16.29,16.29,0,0,1-.52,6.21A11.23,11.23,0,0,1,21.08,22a5.27,5.27,0,0,1-3.28,1.79,3.43,3.43,0,0,1-4-4.39c.44-1.57.91-3.12,1.36-4.69a9,9,0,0,0,.47-3.5,2.85,2.85,0,0,0-3.48-2.6,4.1,4.1,0,0,0-3,2.61,8.11,8.11,0,0,0-.07,6.14,1.07,1.07,0,0,1,.06.61c-.72,3.13-1.43,6.26-2.21,9.37A70.09,70.09,0,0,0,5.22,36a48.59,48.59,0,0,0,.11,6.15S8.56,39.08,9.25,36Z"/></g></g></svg>