<svg id="bce784b1-8475-4010-a965-9d65b4118458" data-name="Layer 1" xmlns="http://www.w3.org/2000/svg" viewBox="0 0 200 125"><defs><style>.ace32a3f-3e27-4789-a400-580e5dd57430,.ad800267-fec2-4ae7-aa27-80840b8cf3e4,.b51c1379-c922-461e-b56f-47e38cadd629,.baa0cce5-5c3a-4632-ac5c-d75942566b94{fill:#fff;}.ace32a3f-3e27-4789-a400-580e5dd57430,.aced168f-5eed-40b8-8b39-f5312b5e628e,.ad800267-fec2-4ae7-aa27-80840b8cf3e4,.b1175ad0-e2ba-47f2-8c66-1651f877cca4,.b4e33094-60f4-4074-90a6-3b97392ff88f,.b51c1379-c922-461e-b56f-47e38cadd629,.baa0cce5-5c3a-4632-ac5c-d75942566b94{stroke:#000;fill-rule:evenodd;}.aced168f-5eed-40b8-8b39-f5312b5e628e,.b1175ad0-e2ba-47f2-8c66-1651f877cca4,.b4e33094-60f4-4074-90a6-3b97392ff88f{fill:#c81717;}</style></defs><title>Treatments-Problems-Crooked</title><path class="baa0cce5-5c3a-4632-ac5c-d75942566b94" d="M54.9,100.67c-6-.34-9.51-2.86-11.27-7.6C42.28,89.41,42,86.13,42,76.6c0-.5,0-.9,0-1.22.57-4.27,12.85-8.15,18.37-4.79a28.81,28.81,0,0,1,5.09,13.77C66,91.63,62.8,97.35,54.9,100.67Z"/><path class="ad800267-fec2-4ae7-aa27-80840b8cf3e4" d="M83.94,106.8c-12.86-1-18.41-12.37-18.44-30.13,2.22-3.5,29.41-4.5,32.66-.88,0,.35,0,.8.1,1.42,0,.33.18,1.81.22,2.19a41.34,41.34,0,0,1-.26,12.15C96.74,99.18,92.33,104.5,83.94,106.8Z"/><path class="b1175ad0-e2ba-47f2-8c66-1651f877cca4" d="M110.1,105.77c12.69,2.33,21-7.18,25.61-24.34-1.23-4-27.24-12-31.32-9.3-.1.34-.24.77-.46,1.35l-.78,2.06a40.79,40.79,0,0,0-2.89,11.8C99.71,95.1,102.59,101.38,110.1,105.77Z"/><path class="ad800267-fec2-4ae7-aa27-80840b8cf3e4" d="M26.61,90.37c11.06-1.09,15.7-7.46,17-22.65-.67-2.08-5-4.28-9.76-5-5.33-.79-9.5.44-10.6,3.63A33.54,33.54,0,0,0,19.5,80.17C19.46,85.51,21.68,89.08,26.61,90.37Z"/><path class="ad800267-fec2-4ae7-aa27-80840b8cf3e4" d="M149.51,97.23c5.62-2.29,8.07-5.8,8.19-10.85.09-3.9-.75-7.09-3.77-16.13-.16-.47-.29-.85-.38-1.15-1.93-3.86-14.8-3.52-18.93,1.45a28.66,28.66,0,0,0-.33,14.67C136.12,92.28,141,96.67,149.51,97.23Z"/><path class="b51c1379-c922-461e-b56f-47e38cadd629" d="M166.94,91.21c-9.85-5.15-11.77-12.8-7.29-27.37,1.4-1.68,6.2-2.12,10.92-1,5.24,1.27,8.64,4,8.46,7.35a33.52,33.52,0,0,1-1.68,14.21C175.38,89.38,172,91.87,166.94,91.21Z"/><path class="ad800267-fec2-4ae7-aa27-80840b8cf3e4" d="M26.5,17.51C16.2,18.67,9.94,37.45,13.4,52c1,1.83,4.43,4.14,7.89,5.08,4.14,1.13,7.4.24,8.89-3,2-4.33,3.61-12.17,3.59-19C33.75,26.59,31.41,20.27,26.5,17.51Z"/><path class="b4e33094-60f4-4074-90a6-3b97392ff88f" d="M51.32,20.76c-7.65-.41-21.4,20.24-22,33.53.43,1.85,5.52,5.81,11.34,8.74,6.62,3.32,12.19,4.4,14.25,2.38,2.6-2.55,5.33-12.39,5.66-21.56C61,32.49,58,23.92,51.32,20.76Z"/><path class="ace32a3f-3e27-4789-a400-580e5dd57430" d="M176.66,17.24c9.89,3.1,12.45,22.73,6.27,36.37-1.29,1.61-5.14,3.22-8.71,3.49-4.28.32-7.32-1.18-8.17-4.62-1.14-4.64-1.21-12.64.11-19.35C167.8,24.76,171.31,19,176.66,17.24Z"/><path class="ad800267-fec2-4ae7-aa27-80840b8cf3e4" d="M153.5,20.51c7.46,1.71,15,25.35,11.92,38.3-.92,1.66-6.91,4.06-13.31,5.27-7.28,1.37-12.93.87-14.35-1.64-1.8-3.16-1.71-13.38.49-22.29C141,29.12,146.22,21.71,153.5,20.51Z"/><path class="aced168f-5eed-40b8-8b39-f5312b5e628e" d="M69,23.74c-6.16,2.46-8.18,10.47-6.56,22,1.32,9.41,5.11,20.49,8.91,27,2.94,2.78,30.34-5,32.07-9.41,1-2.47-3.38-13.54-9.34-22.48C86.42,29.31,77.55,22.64,69,23.74Z"/><path class="ad800267-fec2-4ae7-aa27-80840b8cf3e4" d="M121.62,21.5c6.61.55,10.89,7.63,12.71,19.16,1.49,9.38,1.11,21.09-.63,28.38-2,3.52-30.47,4.1-33.42.38-1.64-2.08-.73-13.94,2.35-24.23C106.61,31.92,113.14,23,121.62,21.5Z"/></svg>