<svg id="a9b02387-1876-4c77-a78b-8137417c7c4e" data-name="Layer 1" xmlns="http://www.w3.org/2000/svg" viewBox="0 0 175.39 100.31"><defs><style>.ba0de405-be8e-4ebd-87d1-1b475639de6f{fill:#fff;stroke:#000;}.ae8eca86-d512-47d7-b511-c8dc332d5814,.ba0de405-be8e-4ebd-87d1-1b475639de6f{fill-rule:evenodd;}.ae8eca86-d512-47d7-b511-c8dc332d5814{fill:#c81717;}</style></defs><title>Treatments-Problems-Open-01</title><path class="ba0de405-be8e-4ebd-87d1-1b475639de6f" d="M49.69,102.23c-5.62-2.29-8.07-5.8-8.19-10.85-.09-3.9.75-7.09,3.77-16.13.16-.47.29-.85.38-1.15,1.93-3.86,14.81-3.52,18.93,1.45a28.66,28.66,0,0,1,.33,14.67C63.08,97.28,58.23,101.67,49.69,102.23Z" transform="translate(-11.94 -12)"/><path class="ba0de405-be8e-4ebd-87d1-1b475639de6f" d="M83.94,111.8c-12.86-1-18.41-12.37-18.44-30.13,2.22-3.5,29.41-4.5,32.66-.88,0,.35,0,.8.1,1.42,0,.33.18,1.81.22,2.19a41.34,41.34,0,0,1-.26,12.15C96.74,104.18,92.33,109.5,83.94,111.8Z" transform="translate(-11.94 -12)"/><path class="ba0de405-be8e-4ebd-87d1-1b475639de6f" d="M114.35,111.8c12.86-1,18.41-12.37,18.44-30.13-2.22-3.5-29.41-4.5-32.66-.88,0,.35,0,.8-.1,1.42,0,.33-.18,1.81-.22,2.19a41,41,0,0,0,.26,12.15C101.55,104.18,106,109.5,114.35,111.8Z" transform="translate(-11.94 -12)"/><path class="ba0de405-be8e-4ebd-87d1-1b475639de6f" d="M26.61,95.37c11.06-1.09,15.7-7.46,17-22.65-.67-2.08-5-4.28-9.76-5-5.33-.79-9.5.44-10.6,3.63A33.54,33.54,0,0,0,19.5,85.17C19.46,90.51,21.68,94.08,26.61,95.37Z" transform="translate(-11.94 -12)"/><path class="ba0de405-be8e-4ebd-87d1-1b475639de6f" d="M149.51,102.23c5.62-2.29,8.07-5.8,8.19-10.85.09-3.9-.75-7.09-3.77-16.13-.16-.47-.29-.85-.38-1.15-1.93-3.86-14.8-3.52-18.93,1.45a28.66,28.66,0,0,0-.33,14.67C136.12,97.28,141,101.67,149.51,102.23Z" transform="translate(-11.94 -12)"/><path class="ba0de405-be8e-4ebd-87d1-1b475639de6f" d="M172.52,95.37c-11.07-1.09-15.71-7.46-17-22.65.67-2.08,5-4.28,9.75-5,5.34-.79,9.5.44,10.6,3.63a33.56,33.56,0,0,1,3.77,13.81C179.66,90.51,177.44,94.08,172.52,95.37Z" transform="translate(-11.94 -12)"/><path class="ba0de405-be8e-4ebd-87d1-1b475639de6f" d="M26.5,12.51C16.2,13.67,9.94,32.45,13.4,47c1,1.83,4.43,4.14,7.89,5.08,4.14,1.13,7.4.24,8.89-3,2-4.33,3.61-12.17,3.59-19C33.75,21.59,31.41,15.27,26.5,12.51Z" transform="translate(-11.94 -12)"/><path class="ba0de405-be8e-4ebd-87d1-1b475639de6f" d="M45.12,15.51c-7.46,1.71-15,25.35-11.91,38.3.91,1.66,6.91,4.06,13.3,5.27,7.28,1.37,12.93.87,14.35-1.64,1.8-3.16,1.72-13.38-.49-22.29C57.64,24.12,52.41,16.71,45.12,15.51Z" transform="translate(-11.94 -12)"/><path class="ba0de405-be8e-4ebd-87d1-1b475639de6f" d="M172.78,12.51c10.3,1.16,16.56,19.94,13.09,34.51-1,1.83-4.43,4.14-7.89,5.08-4.13,1.13-7.4.24-8.89-3-2-4.33-3.6-12.17-3.59-19C165.52,21.59,167.86,15.27,172.78,12.51Z" transform="translate(-11.94 -12)"/><path class="ba0de405-be8e-4ebd-87d1-1b475639de6f" d="M153.5,15.51c7.46,1.71,15,25.35,11.92,38.3-.92,1.66-6.91,4.06-13.31,5.27-7.28,1.37-12.93.87-14.35-1.64-1.8-3.16-1.71-13.38.49-22.29C141,24.12,146.22,16.71,153.5,15.51Z" transform="translate(-11.94 -12)"/><path class="ba0de405-be8e-4ebd-87d1-1b475639de6f" d="M76.21,16.39C69.6,16.94,65.32,24,63.5,35.55c-1.49,9.38-1.11,21.09.63,28.38,2,3.52,30.47,4.1,33.42.38,1.65-2.08.73-13.94-2.35-24.23C91.22,26.81,84.69,17.84,76.21,16.39Z" transform="translate(-11.94 -12)"/><path class="ba0de405-be8e-4ebd-87d1-1b475639de6f" d="M121.62,16.5c6.61.55,10.89,7.63,12.71,19.16,1.49,9.38,1.11,21.09-.63,28.38-2,3.52-30.47,4.1-33.42.38-1.64-2.08-.73-13.94,2.35-24.23C106.61,26.92,113.14,18,121.62,16.5Z" transform="translate(-11.94 -12)"/><path class="ae8eca86-d512-47d7-b511-c8dc332d5814" d="M21.17,53.06c6.38.94,8.56-.67,10.39-4.27-.95,7.69,5.58,8.74,11.52,10.51,6.27,1.79,16.48,2.48,19-1.77.22,8,1.92,8.32,7.55,9.47,8.83,1.8,24.71,1.8,29.38-2.48,3.35,2.73,9.35,3.33,15.36,3.48A56.58,56.58,0,0,0,133,65.85c3.65-1.11-.87-4,5.13-5.53,2.53-.63,4.69,1.37,16.13-.62A105.14,105.14,0,0,0,168.85,54c2-.89,4.85.29,7.29,0-.86,7.8-3.73,7.8-3.73,12C165,66,160,68.21,154.26,71.75c-4.83-1.73-20.83-4-22,7.66-9.54-2.17-22.64-3.07-33.42,0-10.62-2.79-19.5-2.79-31.95,0,0-7.63-10.57-10.49-21.93-7.66-7.36-7.23-15-5.74-21.55-4.4C19.88,60.32,19.3,61.56,21.17,53.06Z" transform="translate(-11.94 -12)"/></svg>