<svg id="ee0d13c1-a0f2-417c-8dd3-57a5d62bcb7c" data-name="Layer 1" xmlns="http://www.w3.org/2000/svg" viewBox="0 0 200 125"><defs><style>.bf19109b-8a10-444e-81b0-0435839c3db4{fill:#fff;stroke:#000;}.b909f8ed-f68f-4819-b875-79e7751f62e0,.bf19109b-8a10-444e-81b0-0435839c3db4{fill-rule:evenodd;}.b909f8ed-f68f-4819-b875-79e7751f62e0{fill:#c81717;}</style></defs><title>Treatments-Problems-Underbite-01</title><path class="bf19109b-8a10-444e-81b0-0435839c3db4" d="M26.5,26.51C16.2,27.67,9.94,46.45,13.4,61c1,1.83,4.43,4.14,7.89,5.08,4.14,1.13,7.4.24,8.89-3,2-4.33,3.61-12.17,3.59-19C33.75,35.59,31.41,29.27,26.5,26.51Z"/><path class="bf19109b-8a10-444e-81b0-0435839c3db4" d="M45.12,29.51c-7.46,1.71-15,25.35-11.91,38.3.91,1.66,6.91,4.06,13.3,5.27,7.28,1.37,12.93.87,14.35-1.64,1.8-3.16,1.72-13.38-.49-22.29C57.64,38.12,52.41,30.71,45.12,29.51Z"/><path class="bf19109b-8a10-444e-81b0-0435839c3db4" d="M172.78,26.51c10.3,1.16,16.56,19.94,13.09,34.51-1,1.83-4.43,4.14-7.89,5.08-4.13,1.13-7.4.24-8.89-3-2-4.33-3.6-12.17-3.59-19C165.52,35.59,167.86,29.27,172.78,26.51Z"/><path class="bf19109b-8a10-444e-81b0-0435839c3db4" d="M153.5,29.51c7.46,1.71,15,25.35,11.92,38.3-.92,1.66-6.91,4.06-13.31,5.27-7.28,1.37-12.93.87-14.35-1.64-1.8-3.16-1.71-13.38.49-22.29C141,38.12,146.22,30.71,153.5,29.51Z"/><path class="bf19109b-8a10-444e-81b0-0435839c3db4" d="M76.21,30.39C69.6,30.94,65.32,38,63.5,49.55c-1.49,9.38-1.11,21.09.63,28.38,2,3.52,30.47,4.1,33.42.38,1.65-2.08.73-13.94-2.35-24.23C91.22,40.81,84.69,31.84,76.21,30.39Z"/><path class="bf19109b-8a10-444e-81b0-0435839c3db4" d="M121.62,30.5c6.61.55,10.89,7.63,12.71,19.16,1.49,9.38,1.11,21.09-.63,28.38-2,3.52-30.47,4.1-33.42.38-1.64-2.08-.73-13.94,2.35-24.23C106.61,40.92,113.14,32,121.62,30.5Z"/><path class="b909f8ed-f68f-4819-b875-79e7751f62e0" d="M22.61,52q9.06-2.73,12.22-2c5.07,1.17,8,4.59,10.58,5,3.25.52,6.33-.88,8.93-.71,4.29.29,7.48,2.47,9.6,3.12s1.46,4.69,3.36,5c4.65.7,9-1.72,13.55-1.88,6.84-.24,13.72,1.1,18.44,1.1s12.12-1.38,18.75-1.1c4.78.2,8.65,2.7,13.83,1.88,1.79-.28,0-3,3.45-5.62,2.08-.48,5.09-2.37,9.08-2.6,2.75-.17,6,1.45,9.65.84,2-.33,4.19-3.12,7.84-4a21.87,21.87,0,0,1,8.27-.58A42.21,42.21,0,0,1,176.52,52L175,71,28.08,65.81Z"/><path class="bf19109b-8a10-444e-81b0-0435839c3db4" d="M49.69,88.23c-5.62-2.29-8.07-5.8-8.19-10.85-.09-3.9.75-7.09,3.77-16.13.16-.47.29-.85.38-1.15,1.93-3.86,14.81-3.52,18.93,1.45a28.66,28.66,0,0,1,.33,14.67C63.08,83.28,58.23,87.67,49.69,88.23Z"/><path class="bf19109b-8a10-444e-81b0-0435839c3db4" d="M83.94,97.8c-12.86-1-18.41-12.37-18.44-30.13,2.22-3.5,29.41-4.5,32.66-.88,0,.35,0,.8.1,1.42,0,.33.18,1.81.22,2.19a41.34,41.34,0,0,1-.26,12.15C96.74,90.18,92.33,95.5,83.94,97.8Z"/><path class="bf19109b-8a10-444e-81b0-0435839c3db4" d="M114.35,97.8c12.86-1,18.41-12.37,18.44-30.13-2.22-3.5-29.41-4.5-32.66-.88,0,.35,0,.8-.1,1.42,0,.33-.18,1.81-.22,2.19a41,41,0,0,0,.26,12.15C101.55,90.18,106,95.5,114.35,97.8Z"/><path class="bf19109b-8a10-444e-81b0-0435839c3db4" d="M26.61,81.37c11.06-1.09,15.7-7.46,17-22.65-.67-2.08-5-4.28-9.76-5-5.33-.79-9.5.44-10.6,3.63A33.54,33.54,0,0,0,19.5,71.17C19.46,76.51,21.68,80.08,26.61,81.37Z"/><path class="bf19109b-8a10-444e-81b0-0435839c3db4" d="M149.51,88.23c5.62-2.29,8.07-5.8,8.19-10.85.09-3.9-.75-7.09-3.77-16.13-.16-.47-.29-.85-.38-1.15-1.93-3.86-14.8-3.52-18.93,1.45a28.66,28.66,0,0,0-.33,14.67C136.12,83.28,141,87.67,149.51,88.23Z"/><path class="bf19109b-8a10-444e-81b0-0435839c3db4" d="M172.52,81.37c-11.07-1.09-15.71-7.46-17-22.65.67-2.08,5-4.28,9.75-5,5.34-.79,9.5.44,10.6,3.63a33.56,33.56,0,0,1,3.77,13.81C179.66,76.51,177.44,80.08,172.52,81.37Z"/></svg>