<svg id="a3b38cbd-d5c1-4226-966f-07a36f8986d2" data-name="Layer 1" xmlns="http://www.w3.org/2000/svg" viewBox="0 0 200 125"><defs><style>.aef4b0e6-fdd5-43fc-a2e1-899080e3da0c{fill:#fff;stroke:#000;}.aef4b0e6-fdd5-43fc-a2e1-899080e3da0c,.b2ede9e5-f4d4-4276-af70-a2c750bff722{fill-rule:evenodd;}.b2ede9e5-f4d4-4276-af70-a2c750bff722{fill:#c81717;}</style></defs><title>Treatments-Problems-Gap-01</title><path class="aef4b0e6-fdd5-43fc-a2e1-899080e3da0c" d="M41.69,90.23c-5.62-2.29-8.07-5.8-8.19-10.85-.09-3.9.75-7.09,3.77-16.13.16-.47.29-.85.38-1.15,1.93-3.86,14.81-3.52,18.93,1.45a28.66,28.66,0,0,1,.33,14.67C55.08,85.28,50.23,89.67,41.69,90.23Z"/><path class="aef4b0e6-fdd5-43fc-a2e1-899080e3da0c" d="M81.94,100.8c-12.86-1-18.41-12.37-18.44-30.13,2.22-3.5,29.41-4.5,32.66-.88,0,.35,0,.8.1,1.42,0,.33.18,1.81.22,2.19a41.34,41.34,0,0,1-.26,12.15C94.74,93.18,90.33,98.5,81.94,100.8Z"/><path class="aef4b0e6-fdd5-43fc-a2e1-899080e3da0c" d="M112.35,100.8c12.86-1,18.41-12.37,18.44-30.13-2.22-3.5-29.41-4.5-32.66-.88,0,.35,0,.8-.1,1.42,0,.33-.18,1.81-.22,2.19a41,41,0,0,0,.26,12.15C99.55,93.18,104,98.5,112.35,100.8Z"/><path class="aef4b0e6-fdd5-43fc-a2e1-899080e3da0c" d="M18.61,83.37c11.06-1.09,15.7-7.46,17-22.65-.67-2.08-5-4.28-9.76-5-5.33-.79-9.5.44-10.6,3.63A33.54,33.54,0,0,0,11.5,73.17C11.46,78.51,13.68,82.08,18.61,83.37Z"/><path class="aef4b0e6-fdd5-43fc-a2e1-899080e3da0c" d="M147.51,94.23c5.62-2.29,8.07-5.8,8.19-10.85.09-3.9-.75-7.09-3.77-16.13-.16-.47-.29-.85-.38-1.15-1.93-3.86-14.8-3.52-18.93,1.45a28.66,28.66,0,0,0-.33,14.67C134.12,89.28,139,93.67,147.51,94.23Z"/><path class="aef4b0e6-fdd5-43fc-a2e1-899080e3da0c" d="M177.52,83.37c-11.07-1.09-15.71-7.46-17-22.65.67-2.08,5-4.28,9.75-5,5.34-.79,9.5.44,10.6,3.63a33.56,33.56,0,0,1,3.77,13.81C184.66,78.51,182.44,82.08,177.52,83.37Z"/><path class="aef4b0e6-fdd5-43fc-a2e1-899080e3da0c" d="M20.5,11.51C10.2,12.67,3.94,31.45,7.4,46c1,1.83,4.43,4.14,7.89,5.08,4.14,1.13,7.4.24,8.89-3,2-4.33,3.61-12.17,3.59-19C27.75,20.59,25.41,14.27,20.5,11.51Z"/><path class="aef4b0e6-fdd5-43fc-a2e1-899080e3da0c" d="M39.12,14.51c-7.46,1.71-15,25.35-11.91,38.3.91,1.66,6.91,4.06,13.3,5.27,7.28,1.37,12.93.87,14.35-1.64,1.8-3.16,1.72-13.38-.49-22.29C51.64,23.12,46.41,15.71,39.12,14.51Z"/><path class="aef4b0e6-fdd5-43fc-a2e1-899080e3da0c" d="M175.78,12.51c10.3,1.16,16.56,19.94,13.09,34.51-1,1.83-4.43,4.14-7.89,5.08-4.13,1.13-7.4.24-8.89-3-2-4.33-3.6-12.17-3.59-19C168.52,21.59,170.86,15.27,175.78,12.51Z"/><path class="aef4b0e6-fdd5-43fc-a2e1-899080e3da0c" d="M156.5,14.51c7.46,1.71,15,25.35,11.92,38.3-.92,1.66-6.91,4.06-13.31,5.27-7.28,1.37-12.93.87-14.35-1.64-1.8-3.16-1.71-13.38.49-22.29C144,23.12,149.22,15.71,156.5,14.51Z"/><path class="aef4b0e6-fdd5-43fc-a2e1-899080e3da0c" d="M70.21,15.39C63.6,15.94,59.32,23,57.5,34.55c-1.49,9.38-1.11,21.09.63,28.38,2,3.52,30.47,4.1,33.42.38,1.65-2.08.73-13.94-2.35-24.23C85.22,25.81,78.69,16.84,70.21,15.39Z"/><path class="aef4b0e6-fdd5-43fc-a2e1-899080e3da0c" d="M124.62,15.5c6.61.55,10.89,7.63,12.71,19.16,1.49,9.38,1.11,21.09-.63,28.38-2,3.52-30.47,4.1-33.42.38-1.64-2.08-.73-13.94,2.35-24.23C109.61,25.92,116.14,17,124.62,15.5Z"/><path class="b2ede9e5-f4d4-4276-af70-a2c750bff722" d="M83.67,21.22c6.74-4.52,12.06-5.4,13.71-5.4s6.4,1.68,13,5.4a93.83,93.83,0,0,0-6.76,18.38,76.3,76.3,0,0,0-3.07,23.78H94c.36-12-1-17.6-3.6-26.72C88.83,31,86.21,27.5,83.67,21.22Z"/><path class="b2ede9e5-f4d4-4276-af70-a2c750bff722" d="M152.74,65.19l6.52-2.69q1.2,8.41,3,12.26a21.93,21.93,0,0,0,6.62,7.55,66.34,66.34,0,0,1-5.75,5.27c-1,.47-2.94,1.38-7,.78.93-6.37.93-6.66,0-11.69A119.11,119.11,0,0,0,152.74,65.19Z"/><path class="b2ede9e5-f4d4-4276-af70-a2c750bff722" d="M59,69.44l3.07.49A97,97,0,0,0,63,80.76a95.94,95.94,0,0,0,3.39,12.76q-8.55-.64-9.29-.65c-.5,0-3-1-7.4-3.07q6.3-4.8,7.91-9T59,69.44Z"/></svg>