<svg id="ad37f2b5-fc54-447c-b67a-2fd723615ecf" data-name="Layer 1" xmlns="http://www.w3.org/2000/svg" viewBox="0 0 200 100"><defs><style>.be087f2f-ae51-4416-887f-5121425ceea7{fill:#fff;stroke:#000;stroke-miterlimit:10;}.a91174f7-2ac1-4a45-adaa-ba33a3f42b14{fill:#8b0b00;}</style></defs><title>Treatments-Problems-TeethProtrusion</title><path class="be087f2f-ae51-4416-887f-5121425ceea7" d="M91.33,60.34c-2.61,1.13-7.78,1.83-11.24,1.74a36.45,36.45,0,0,1-11-2.55c.52-3.5,4.7-21.06,5.85-24.44C76,30.55,82.11,23.66,87.62,25c3.72.9,9.37,8.93,8.11,15.82A128.9,128.9,0,0,1,91.33,60.34Z"/><path class="be087f2f-ae51-4416-887f-5121425ceea7" d="M115.29,59.11a37,37,0,0,1-12,2,36.45,36.45,0,0,1-11-2.55c.52-3.5,4.7-21.06,5.85-24.44,1.11-4.54,7.2-11.43,12.71-10.1,3.32,2.3,6.3,8.89,7.32,13.32C118.37,40.2,117.37,53,115.29,59.11Z"/><path class="be087f2f-ae51-4416-887f-5121425ceea7" d="M164.73,44.7c-2.34,1.89-8.14,5-11.65,5.43-3.07-.08-9-.84-10.88-1.86,3.13-2.6,0-22.52.11-25.89.51-6.95,6-10.82,8.89-10.92,3.07-.86,6.83,1.79,7.56,2.6C160.34,16.76,168.51,41.6,164.73,44.7Z"/><path class="be087f2f-ae51-4416-887f-5121425ceea7" d="M182.21,39.8c-2.34,1.89-3.43,2-6.75,3.08-3.31,1.26-7.91,2.73-8.55.85-.61-.82-5.4-24.11-5.26-27.47.52-7,2.56-9.3,5.48-9.39,3.07-.86,4.07-.61,5.84,0C176.8,10.4,185.76,32.59,182.21,39.8Z"/><path class="be087f2f-ae51-4416-887f-5121425ceea7" d="M141.63,49.07c-2.85,1.44-16.2,6.51-19,7a13.87,13.87,0,0,1-5.8-1.79c.17-1.65.55-5.75,1-9.88.58-5.39.64-4,1.39-10.05.15-1.17,1.12-7.94,1.54-9.26.51-2.07.93-3.16,2.29-4,1.11-2.69,4.77,1.72,6.71,1.83.88-1.79.46-2.65,2.15-4.44a4.33,4.33,0,0,1,2.62-1.52c1.51,0,4.5,4.7,5.71,8.55,1,2.9,1.86,5.32,2.47,7.51C142.93,35.93,143.7,43,141.63,49.07Z"/><path class="be087f2f-ae51-4416-887f-5121425ceea7" d="M155.22,52.93c1.11-2.5,19.94-5.55,22.28-3.53,2,.29.29,18.93-2.47,24.64a6,6,0,0,1-3.86,2.88,11,11,0,0,1-6.65-.3C162.56,75.76,155.93,62.1,155.22,52.93Z"/><path class="be087f2f-ae51-4416-887f-5121425ceea7" d="M131.5,56.59c1.66-1.14,5.13-4.55,9.85-5.15,5.57-.71,8-.28,10.5,1.12a21.94,21.94,0,0,1,3.15,8.6c.41,3-.52,7.46-.74,8.87-.54,3.63-1.25,5-2.06,6.18a6.9,6.9,0,0,1-3.86,2.88,11,11,0,0,1-6.65-.29c-2-.87-3.63-4.43-6-7.24A34.91,34.91,0,0,1,131.5,56.59Z"/><path class="be087f2f-ae51-4416-887f-5121425ceea7" d="M113.1,62.14c1.48-1.44,5.79-4.5,8.82-4.93,5.58-.71,4.46-.84,7.74-.63.86.53,2.91,7.11,4.23,11,1.52,3.39,2.85,6.22,2.77,8.39,0,1.88-.45,3.87-.9,4-.46.65-6.32,4.48-10.21,3.06a8.1,8.1,0,0,1-3.8-1.56c-1.32-.81-2-2.38-3.2-4.19C116.65,73.61,113.2,68.08,113.1,62.14Z"/><path class="be087f2f-ae51-4416-887f-5121425ceea7" d="M89.53,64a7,7,0,0,1,5.12-2.53c5.58-.71,13,0,16.32.21.87.53,3.63,7.52,5.7,12.07.6,1.62,2.33,6.23,2.25,8.4,0,1.87-.44,3.86-.9,4-.46.66-5.52,7.13-9.41,5.71a19.92,19.92,0,0,1-6-2.38c-1.33-.82-5.14-2.69-6.34-4.5C94.4,81.29,89.63,70,89.53,64Z"/><path class="be087f2f-ae51-4416-887f-5121425ceea7" d="M68.77,64.91C70.25,63.48,84,62.82,87.25,63c.87.53,4.71,12.4,6.78,17,.59,1.62-.24,4.1-1.54,7.15-2.23,4.63-2.3,4.55-3.41,5.55-1.49,1-6.68,5.19-7.44,4.08a38.54,38.54,0,0,1-3.73-2.35c-1.32-.82-2.38-4.57-3.58-6.38C72.43,84.32,68.87,70.86,68.77,64.91Z"/><path class="be087f2f-ae51-4416-887f-5121425ceea7" d="M51.35,61.57c1.48-1.44,13,1.65,16.28,2.58.89.22,5.43,22.72,5.91,23.34.29,1.64.16,3.27-.33,3.55-1.51,3.26-8.29,3.09-10,2.36-1.69-.56-2.91-2.1-4.72-4C57.2,88.61,51.45,67.51,51.35,61.57Z"/><path class="be087f2f-ae51-4416-887f-5121425ceea7" d="M35.19,59.39c1.48-1.44,12.73,1.91,16,2.84.18.46,4.46,21.13,5.09,21.53.29,1.64,1.82,5,.84,7.66-1.51,3.27-8.67,3.76-10.48,1.88C45.32,92.49,35.29,65.33,35.19,59.39Z"/><line class="be087f2f-ae51-4416-887f-5121425ceea7" x1="45.24" x2="39.19" y2="27.62"/><line class="be087f2f-ae51-4416-887f-5121425ceea7" x1="46.85" y1="93.49" x2="52.37" y2="100"/><path class="be087f2f-ae51-4416-887f-5121425ceea7" d="M29.32,60.8c-1.77-1.41-5.54-4-7.59-6.41a43.41,43.41,0,0,1-4.48-6.34c2.29-2.68,21.56-20.24,24.32-22.5,3.35-3.25,8.4-3.3,11.23-.78,1.13,1.16-.5,13.49-5.23,18.66C39.72,51.6,37.41,53.25,29.32,60.8Z"/><path class="be087f2f-ae51-4416-887f-5121425ceea7" d="M68.4,66.39c-2.24-.25-11-.78-14.31-1.6a41.83,41.83,0,0,1-8.26-3c.52-3.49,4.7-21,5.84-24.43,1.12-4.54,10.24-14.08,15.76-12.75,3.71.9,8.33,8.22,7.07,15.11C72.63,50.46,71.11,56,68.4,66.39Z"/><path class="a91174f7-2ac1-4a45-adaa-ba33a3f42b14" d="M49.65,42.19c-2.3,2.41-4.47,5.08-6.94,7.53-3.26,3.23-6.71,6.07-9.9,9a22.63,22.63,0,0,1,7-.24,25.82,25.82,0,0,1,5.3,1.3,21.81,21.81,0,0,0,1.08-4c.72-3,1.12-4.67,2.41-9.95C49,44.22,49.47,42.91,49.65,42.19Z"/></svg>