<svg id="a1e6e0a4-b2c0-4848-b47e-8ada3489b668" data-name="Layer 1" xmlns="http://www.w3.org/2000/svg" viewBox="0 0 200 100"><defs><style>.befd206b-65f2-42ba-8de2-755239671c2a{fill:#fff;stroke:#000;stroke-miterlimit:10;}.a429ec83-0199-4b1e-aaea-03c1d3f69055{fill:#8b0b00;}</style></defs><title>Treatments-Problems-MidlinesNoMatch</title><path class="befd206b-65f2-42ba-8de2-755239671c2a" d="M40.23,55.91c-2.24-.25-6.83-.46-9.83-1.4a41.92,41.92,0,0,1-7.17-3c.52-3.49,7.52-28.6,8.67-32C33,15,37.26,12.28,41,12.92c1.57.38,6.74,11.69,5.48,18.58C44.16,42.6,43.08,45.22,40.23,55.91Z"/><path class="befd206b-65f2-42ba-8de2-755239671c2a" d="M63.4,60.39c-2.24-.25-10.95-.78-14.31-1.6a41.83,41.83,0,0,1-8.26-3c.52-3.49,4.7-21,5.84-24.43,1.12-4.54,10.24-14.08,15.76-12.75,3.71.9,8.33,8.22,7.07,15.11C67.63,44.46,66.11,50,63.4,60.39Z"/><path class="befd206b-65f2-42ba-8de2-755239671c2a" d="M86.33,60.34c-2.61,1.13-7.78,1.83-11.24,1.74a36.45,36.45,0,0,1-11-2.55c.52-3.5,4.7-21.06,5.85-24.44C71,30.55,77.11,23.66,82.62,25c3.72.9,9.37,8.93,8.11,15.82A128.9,128.9,0,0,1,86.33,60.34Z"/><path class="befd206b-65f2-42ba-8de2-755239671c2a" d="M110.29,59.11a37,37,0,0,1-12,2,36.45,36.45,0,0,1-11-2.55c.52-3.5,4.7-21.06,5.85-24.44,1.11-4.54,7.2-11.43,12.71-10.1,3.32,2.3,6.3,8.89,7.32,13.32C113.37,40.2,112.37,53,110.29,59.11Z"/><path class="befd206b-65f2-42ba-8de2-755239671c2a" d="M159.73,44.7c-2.34,1.89-8.14,5-11.65,5.43-3.07-.08-9-.84-10.88-1.86,3.13-2.6,0-22.52.11-25.89.51-6.95,6-10.82,8.89-10.92,3.07-.86,6.83,1.79,7.56,2.6C155.34,16.76,163.51,41.6,159.73,44.7Z"/><path class="befd206b-65f2-42ba-8de2-755239671c2a" d="M177.21,39.8c-2.34,1.89-3.43,2-6.75,3.08-3.31,1.26-7.91,2.73-8.55.85-.61-.82-5.4-24.11-5.26-27.47.52-7,2.56-9.3,5.48-9.39,3.07-.86,4.07-.61,5.84,0C171.8,10.4,180.76,32.59,177.21,39.8Z"/><path class="befd206b-65f2-42ba-8de2-755239671c2a" d="M136.63,49.07c-2.85,1.44-16.2,6.51-19,7a13.87,13.87,0,0,1-5.8-1.79c.17-1.65.55-5.75,1-9.88.58-5.39.64-4,1.39-10.05.15-1.17,1.12-7.94,1.54-9.26.51-2.07.93-3.16,2.29-4,1.11-2.69,4.77,1.72,6.71,1.83.88-1.79.46-2.65,2.15-4.44a4.33,4.33,0,0,1,2.62-1.52c1.51,0,4.5,4.7,5.71,8.55,1,2.9,1.86,5.32,2.47,7.51C137.93,35.93,138.7,43,136.63,49.07Z"/><path class="befd206b-65f2-42ba-8de2-755239671c2a" d="M153.52,64.61c1.24-3.2,20.29-3.86,22.55-.62,1.92.54-2.16,18.8-5.63,24.11a6,6,0,0,1-4.2,2.36,11.05,11.05,0,0,1-6.56-1.16C157.85,88.19,153,73.79,153.52,64.61Z"/><path class="befd206b-65f2-42ba-8de2-755239671c2a" d="M131.33,61.11c1.91-.64,6.18-3,10.88-2.24,5.56.86,7.76,1.94,9.79,4a21.8,21.8,0,0,1,.66,9.12c-.43,3-2.56,7-3.15,8.33-1.52,3.34-2.59,4.48-3.69,5.38a6.88,6.88,0,0,1-4.51,1.7A11,11,0,0,1,135,85.26c-1.64-1.37-2.26-5.25-3.76-8.61A34.62,34.62,0,0,1,131.33,61.11Z"/><path class="befd206b-65f2-42ba-8de2-755239671c2a" d="M112.11,61.38c1.82-1,6.8-2.74,9.84-2.31,5.55.85,4.51.42,7.6,1.52.69.75.84,7.63,1,11.76.53,3.68,1,6.77.35,8.83-.5,1.81-1.49,3.6-2,3.62-.62.5-7.31,2.56-10.66.12a8.15,8.15,0,0,1-3.22-2.54c-1-1.15-1.27-2.84-1.92-4.91C112.36,73.38,110.57,67.12,112.11,61.38Z"/><path class="befd206b-65f2-42ba-8de2-755239671c2a" d="M84.53,64a7,7,0,0,1,5.12-2.53c5.58-.71,13,0,16.32.21.87.53,3.63,7.52,5.7,12.07.6,1.62,2.33,6.23,2.25,8.4,0,1.87-.44,3.86-.9,4-.46.66-5.52,7.13-9.41,5.71a19.92,19.92,0,0,1-6-2.38c-1.33-.82-5.14-2.69-6.34-4.5C89.4,81.29,84.63,70,84.53,64Z"/><path class="befd206b-65f2-42ba-8de2-755239671c2a" d="M63.77,64.91C65.25,63.48,79,62.82,82.25,63c.87.53,4.71,12.4,6.78,17,.59,1.62-.24,4.1-1.54,7.15-2.23,4.63-2.3,4.55-3.41,5.55-1.49,1-6.68,5.19-7.44,4.08a38.54,38.54,0,0,1-3.73-2.35c-1.32-.82-2.38-4.57-3.58-6.38C67.43,84.32,63.87,70.86,63.77,64.91Z"/><path class="befd206b-65f2-42ba-8de2-755239671c2a" d="M46.35,61.57c1.48-1.44,13,1.65,16.28,2.58.89.22,5.43,22.72,5.91,23.34.29,1.64.16,3.27-.33,3.55-1.51,3.26-8.29,3.09-10,2.36-1.69-.56-2.91-2.1-4.72-4C52.2,88.61,46.45,67.51,46.35,61.57Z"/><path class="befd206b-65f2-42ba-8de2-755239671c2a" d="M30.19,59.39c1.48-1.44,12.73,1.91,16,2.84.18.46,4.46,21.13,5.09,21.53.29,1.64,1.82,5,.84,7.66-1.51,3.27-8.67,3.76-10.48,1.88C40.32,92.49,30.29,65.33,30.19,59.39Z"/><line class="befd206b-65f2-42ba-8de2-755239671c2a" x1="39.31" y1="-0.34" x2="34.95" y2="14.68"/><line class="befd206b-65f2-42ba-8de2-755239671c2a" x1="43.67" y1="94.23" x2="46.67" y2="100.32"/><path class="a429ec83-0199-4b1e-aaea-03c1d3f69055" d="M112,55.81l-.2,4.25c1.76,0,7.19-2.28,9.57-1.88,1.91.32,7.69,1,9.11,1.49a20.86,20.86,0,0,1,23,3,37.13,37.13,0,0,1,23.45-.24L178,41.12a82.55,82.55,0,0,1-11.38,4.05c-3.47.95-3.09.33-5.49.4a24,24,0,0,1-23.13,4c-2.81,1.93-7,2.43-10.85,4.57C122.57,56.71,112.8,58.07,112,55.81Z"/></svg>