<svg id="f50af775-6abe-4717-a13b-8ba6df5cf7a0" data-name="Layer 1" xmlns="http://www.w3.org/2000/svg" viewBox="0 0 200 125"><defs><style>.e576dfef-4900-49ac-8d7a-d7efcba6c122{fill:#fff;stroke:#000;}.e576dfef-4900-49ac-8d7a-d7efcba6c122,.e7dab7dd-73a8-4020-8079-9169601c29d1{fill-rule:evenodd;}.e7dab7dd-73a8-4020-8079-9169601c29d1{fill:#c81717;}</style></defs><title>Treatments-Problems-Overbite-01</title><path class="e576dfef-4900-49ac-8d7a-d7efcba6c122" d="M49.69,88.23c-5.62-2.29-8.07-5.8-8.19-10.85-.09-3.9.75-7.09,3.77-16.13.16-.47.29-.85.38-1.15,1.93-3.86,14.81-3.52,18.93,1.45a28.66,28.66,0,0,1,.33,14.67C63.08,83.28,58.23,87.67,49.69,88.23Z"/><path class="e576dfef-4900-49ac-8d7a-d7efcba6c122" d="M83.94,97.8c-12.86-1-18.41-12.37-18.44-30.13,2.22-3.5,29.41-4.5,32.66-.88,0,.35,0,.8.1,1.42,0,.33.18,1.81.22,2.19a41.34,41.34,0,0,1-.26,12.15C96.74,90.18,92.33,95.5,83.94,97.8Z"/><path class="e576dfef-4900-49ac-8d7a-d7efcba6c122" d="M114.35,97.8c12.86-1,18.41-12.37,18.44-30.13-2.22-3.5-29.41-4.5-32.66-.88,0,.35,0,.8-.1,1.42,0,.33-.18,1.81-.22,2.19a41,41,0,0,0,.26,12.15C101.55,90.18,106,95.5,114.35,97.8Z"/><path class="e576dfef-4900-49ac-8d7a-d7efcba6c122" d="M26.61,81.37c11.06-1.09,15.7-7.46,17-22.65-.67-2.08-5-4.28-9.76-5-5.33-.79-9.5.44-10.6,3.63A33.54,33.54,0,0,0,19.5,71.17C19.46,76.51,21.68,80.08,26.61,81.37Z"/><path class="e576dfef-4900-49ac-8d7a-d7efcba6c122" d="M149.51,88.23c5.62-2.29,8.07-5.8,8.19-10.85.09-3.9-.75-7.09-3.77-16.13-.16-.47-.29-.85-.38-1.15-1.93-3.86-14.8-3.52-18.93,1.45a28.66,28.66,0,0,0-.33,14.67C136.12,83.28,141,87.67,149.51,88.23Z"/><path class="e576dfef-4900-49ac-8d7a-d7efcba6c122" d="M172.52,81.37c-11.07-1.09-15.71-7.46-17-22.65.67-2.08,5-4.28,9.75-5,5.34-.79,9.5.44,10.6,3.63a33.56,33.56,0,0,1,3.77,13.81C179.66,76.51,177.44,80.08,172.52,81.37Z"/><path class="e7dab7dd-73a8-4020-8079-9169601c29d1" d="M19,69.06q8.19,0,11.17.83c2,.57,3,1.7,4.45,2.48a37.47,37.47,0,0,0,7.64,3.31c7.34,1.72,14.89.73,18.27,1.62,1.57.41,1.7,2.2,2.79,3.61a8.83,8.83,0,0,0,4.55,3c12.11,2.32,22.87.54,31.13.54,5.52,0,12,.64,19.21.26,3.16-.17,11.89-.86,16-3.08,2.44-1.33,1.89-5.28,4.07-5.59,3.73-.53,7.29,1.65,13.05.75,3.66-.57,8.51-3.8,17-6.29,1.83-.54,5.24-.88,10.21-1L178,64Q125.65,74.77,99,74.32T19,64Z"/><path class="e576dfef-4900-49ac-8d7a-d7efcba6c122" d="M26.5,26.51C16.2,27.67,9.94,46.45,13.4,61c1,1.83,4.43,4.14,7.89,5.08,4.14,1.13,7.4.24,8.89-3,2-4.33,3.61-12.17,3.59-19C33.75,35.59,31.41,29.27,26.5,26.51Z"/><path class="e576dfef-4900-49ac-8d7a-d7efcba6c122" d="M45.12,29.51c-7.46,1.71-15,25.35-11.91,38.3.91,1.66,6.91,4.06,13.3,5.27,7.28,1.37,12.93.87,14.35-1.64,1.8-3.16,1.72-13.38-.49-22.29C57.64,38.12,52.41,30.71,45.12,29.51Z"/><path class="e576dfef-4900-49ac-8d7a-d7efcba6c122" d="M172.78,26.51c10.3,1.16,16.56,19.94,13.09,34.51-1,1.83-4.43,4.14-7.89,5.08-4.13,1.13-7.4.24-8.89-3-2-4.33-3.6-12.17-3.59-19C165.52,35.59,167.86,29.27,172.78,26.51Z"/><path class="e576dfef-4900-49ac-8d7a-d7efcba6c122" d="M153.5,29.51c7.46,1.71,15,25.35,11.92,38.3-.92,1.66-6.91,4.06-13.31,5.27-7.28,1.37-12.93.87-14.35-1.64-1.8-3.16-1.71-13.38.49-22.29C141,38.12,146.22,30.71,153.5,29.51Z"/><path class="e576dfef-4900-49ac-8d7a-d7efcba6c122" d="M76.21,30.39C69.6,30.94,65.32,38,63.5,49.55c-1.49,9.38-1.11,21.09.63,28.38,2,3.52,30.47,4.1,33.42.38,1.65-2.08.73-13.94-2.35-24.23C91.22,40.81,84.69,31.84,76.21,30.39Z"/><path class="e576dfef-4900-49ac-8d7a-d7efcba6c122" d="M121.62,30.5c6.61.55,10.89,7.63,12.71,19.16,1.49,9.38,1.11,21.09-.63,28.38-2,3.52-30.47,4.1-33.42.38-1.64-2.08-.73-13.94,2.35-24.23C106.61,40.92,113.14,32,121.62,30.5Z"/></svg>