<svg xmlns="http://www.w3.org/2000/svg" viewBox="0 0 34.74 28.22"><title>Twitter</title><g id="b9ffe3a7-fd58-44d1-aef7-37e067fe0f3d" data-name="Layer 2"><g id="b6f1760c-d677-4358-9565-7acb01c22368" data-name="Layer 1"><path d="M2.32,1.05C.66,4.74,1,7.91,4,10.73L1,9.87c.24,3.66,2.19,5.9,5.52,7.17L3.72,17a7.42,7.42,0,0,0,6.54,5.08A14.55,14.55,0,0,1,0,25a1.3,1.3,0,0,0,.39.33,19.84,19.84,0,0,0,8.38,2.8,19.47,19.47,0,0,0,12.48-2.63c6.47-4,9.7-10,10-17.55a1.51,1.51,0,0,1,.67-1.31,11.69,11.69,0,0,0,2.85-3.07c-.72.24-1.29.45-1.86.6s-1.16.25-1.74.37A8.17,8.17,0,0,0,33.77.87c-1.33.45-2.62.92-3.93,1.31A1,1,0,0,1,29,2,6.93,6.93,0,0,0,21.75.42,6.67,6.67,0,0,0,17,5.9,18.64,18.64,0,0,0,17,8.72,20.62,20.62,0,0,1,2.32,1.05"/></g></g></svg>