<svg id="af90e9d4-cf9d-411b-ab4e-1c319896750f" data-name="Layer 1" xmlns="http://www.w3.org/2000/svg" xmlns:xlink="http://www.w3.org/1999/xlink" viewBox="0 0 50 50"><defs><style>.e2d53c60-5e2a-427c-88f9-ac6f8209293c,.f17dbddf-64f6-4cf0-b24b-e803ede8db70{fill:#fff;}.f17dbddf-64f6-4cf0-b24b-e803ede8db70{fill-rule:evenodd;}.e7d96072-802a-42cb-953d-eff7e4d4f6c9{mask:url(#bce3a6fd-4cb6-4518-9bd7-233743c33a3c);}.aa4ace26-a6c9-486b-8c0a-f1efadafe757,.aacc0f73-37f9-4c0a-a152-09f66859fc5f,.ba661b5e-9600-45df-bc88-243f79eb0400{fill:none;stroke:#fff;}.aa4ace26-a6c9-486b-8c0a-f1efadafe757,.ba661b5e-9600-45df-bc88-243f79eb0400{stroke-width:2px;}.ba661b5e-9600-45df-bc88-243f79eb0400{stroke-linecap:square;}.b6f9d798-4702-417f-b08c-7346251db5f5{mask:url(#babb2f9a-abd3-4f1a-ad16-4b2a76019baf);}.aacc0f73-37f9-4c0a-a152-09f66859fc5f{stroke-width:2.4px;}</style><mask id="bce3a6fd-4cb6-4518-9bd7-233743c33a3c" x="1" y="0" width="50" height="50" maskUnits="userSpaceOnUse"><g id="e98b6940-75f7-4f57-9b6a-52616e9e0707" data-name="mask-2"><polygon id="ffaab83f-60ab-4aa7-bf6c-8a412eb707c1" data-name="path-1" class="f17dbddf-64f6-4cf0-b24b-e803ede8db70" points="51 0 51 50 1 50 51 0"/></g></mask><mask id="babb2f9a-abd3-4f1a-ad16-4b2a76019baf" x="0.25" y="0.25" width="51.4" height="50.6" maskUnits="userSpaceOnUse"><g id="bfe6fcfb-34b4-43ed-983f-d405da279223" data-name="mask-2"><polygon id="a14490d9-66f3-4c42-b587-b62abcca8365" data-name="path-1" class="f17dbddf-64f6-4cf0-b24b-e803ede8db70" points="51.65 0.85 51.65 50.85 1.65 50.85 51.65 0.85"/></g></mask></defs><title>WhyUs-Hours</title><g class="e7d96072-802a-42cb-953d-eff7e4d4f6c9"><circle class="aa4ace26-a6c9-486b-8c0a-f1efadafe757" cx="14.55" cy="13.57" r="5"/><line class="ba661b5e-9600-45df-bc88-243f79eb0400" x1="5.46" y1="22.08" x2="7.77" y2="19.66"/><line class="ba661b5e-9600-45df-bc88-243f79eb0400" x1="7.77" y1="7.26" x2="5.46" y2="4.85"/><line class="ba661b5e-9600-45df-bc88-243f79eb0400" x1="23.7" y1="22.08" x2="21.38" y2="19.66"/><line class="ba661b5e-9600-45df-bc88-243f79eb0400" x1="21.38" y1="7.26" x2="23.7" y2="4.85"/><line class="ba661b5e-9600-45df-bc88-243f79eb0400" x1="14.65" y1="4.85" x2="14.65" y2="1.43"/><line class="ba661b5e-9600-45df-bc88-243f79eb0400" x1="14.65" y1="25.65" x2="14.65" y2="22.23"/><line class="ba661b5e-9600-45df-bc88-243f79eb0400" x1="3" y1="13.54" x2="6.28" y2="13.54"/><line class="ba661b5e-9600-45df-bc88-243f79eb0400" x1="23.02" y1="13.54" x2="26.29" y2="13.54"/></g><g class="b6f9d798-4702-417f-b08c-7346251db5f5"><rect class="e2d53c60-5e2a-427c-88f9-ac6f8209293c" x="-9.5" y="24.5" width="69" height="1" transform="translate(-10.36 25) rotate(-45)"/></g><path class="aacc0f73-37f9-4c0a-a152-09f66859fc5f" d="M34.9,21.44a10.92,10.92,0,0,0,3,21.36A10.61,10.61,0,0,0,45,40.05,13.24,13.24,0,0,1,33.76,26.88,13.4,13.4,0,0,1,34.9,21.44Z"/></svg>