<svg id="bfe0c127-e5a1-4177-bd0b-951c66bf61ba" data-name="Layer 1" xmlns="http://www.w3.org/2000/svg" viewBox="0 0 50 50"><defs><style>.bcf8c34d-d1af-43dd-90fd-983e1bd787df{fill:#fff;}</style></defs><title>WhyUs-Payment</title><path class="bcf8c34d-d1af-43dd-90fd-983e1bd787df" d="M37.06,18.4a1.44,1.44,0,0,0,0,2.88,1.44,1.44,0,0,0,1-2.47A1.4,1.4,0,0,0,37.06,18.4Zm8-1.21c-1.61-3.84-4.9-6.68-9.42-8.29l1.2-4a1.46,1.46,0,0,0-2-1.74L25,7.82C13.91,8.09,6.12,13.57,5.81,22.24c-1.48-.41-1.92-.09-1.92-1a3.78,3.78,0,0,1,1.33-2.21A1.46,1.46,0,0,0,3.15,17,7,7,0,0,0,1,22.24C1,25,3.6,25.13,5.81,25.13c.7,4,4,7,6.61,9.09v5.05a5.08,5.08,0,0,0,4.88,5.08h2.51a5,5,0,0,0,4.67-3.59c.56,0,1.12,0,1.67,0s1.12.09,1.68,0a5,5,0,0,0,4.67,3.55h3.28a4.6,4.6,0,0,0,4.65-4.8V34.74a15.2,15.2,0,0,0,4.09-5,4.86,4.86,0,0,0,4.57-4.85V22A4.88,4.88,0,0,0,45,17.19Zm1.13,7.71a2.09,2.09,0,0,1-1.9,2.15H42.35c-.9,2.79-2.24,3.94-4.81,5.77v6.73a1.74,1.74,0,0,1-1.76,1.91l-3.28,0a2.21,2.21,0,0,1-2-2.22V37.28a19.63,19.63,0,0,1-4.39.49,19.08,19.08,0,0,1-4.39-.51v2a2.21,2.21,0,0,1-2,2.22l-2.51,0a2.2,2.2,0,0,1-2-2.19V32.82c-3.58-2.65-6.65-5.23-6.65-9.62,0-7.34,7.11-11.77,15.39-12.5,1.94,0,9-3.57,9-3.57l-2,6.66a1.46,1.46,0,0,0,1,1.82,1.93,1.93,0,0,0,.42.05,1.46,1.46,0,0,0,1.4-1l.88-3a11.54,11.54,0,0,1,7.57,8.64h1.92a1.9,1.9,0,0,1,1.92,1.92Z"/></svg>