<svg id="f1c12603-b016-4918-b276-3e02783196f9" data-name="Layer 1" xmlns="http://www.w3.org/2000/svg" viewBox="0 0 49.98 42.07"><defs><style>.bbb7dfd9-6c9d-4ade-ab22-57bf53f2c66d,.bcdab563-327c-4df7-ae78-a33687a1d964{fill:none;}.a77f75a2-b9aa-4e59-968b-83b311c3e68f,.bbb7dfd9-6c9d-4ade-ab22-57bf53f2c66d,.bcdab563-327c-4df7-ae78-a33687a1d964{stroke:#fff;stroke-linecap:round;stroke-linejoin:round;}.a77f75a2-b9aa-4e59-968b-83b311c3e68f,.b6755205-301a-4d73-9df8-2d9aa0d9dde9{fill:#fff;}.a77f75a2-b9aa-4e59-968b-83b311c3e68f,.bbb7dfd9-6c9d-4ade-ab22-57bf53f2c66d{stroke-width:0.6px;}</style></defs><title>WhyUs-Team</title><path class="bcdab563-327c-4df7-ae78-a33687a1d964" d="M16.5,34.4c.77,1.11.24,6.8-3.52,6.8h-.32c-3.76,0-4.29-5.69-3.52-6.8" transform="translate(-0.01 -7.21)"/><path class="bcdab563-327c-4df7-ae78-a33687a1d964" d="M16.5,34.4c.77,1.11.24,6.8-3.52,6.8h-.32c-3.76,0-4.29-5.69-3.52-6.8" transform="translate(-0.01 -7.21)"/><path class="bcdab563-327c-4df7-ae78-a33687a1d964" d="M6.55,35.05c-2.17,4.85,1.33,8.52,3.22,8.52,1.51,0,2.65-1.5,3.05-2.11.41.62,1.54,2.11,3,2.11,1.89,0,5.39-3.67,3.22-8.52" transform="translate(-0.01 -7.21)"/><line class="bcdab563-327c-4df7-ae78-a33687a1d964" x1="12.81" y1="34.25" x2="12.81" y2="41.57"/><line class="bcdab563-327c-4df7-ae78-a33687a1d964" x1="11.37" y1="39.02" x2="9.75" y2="39.02"/><line class="bcdab563-327c-4df7-ae78-a33687a1d964" x1="11.37" y1="41.57" x2="9.75" y2="41.57"/><path class="bcdab563-327c-4df7-ae78-a33687a1d964" d="M20,28a10.06,10.06,0,0,1-3.23,5.69,6.83,6.83,0,0,1-.89.63,6.18,6.18,0,0,1-3.07.89,6.12,6.12,0,0,1-3.06-.89,6.31,6.31,0,0,1-.9-.63A10,10,0,0,1,5.63,28" transform="translate(-0.01 -7.21)"/><path class="bcdab563-327c-4df7-ae78-a33687a1d964" d="M5.21,16.55,2.86,11.2s3.39-3.45,10-3.49,10,3.49,10,3.49l-2.32,5.29" transform="translate(-0.01 -7.21)"/><path class="bcdab563-327c-4df7-ae78-a33687a1d964" d="M19.83,24.66h.11l.25,0h0A1.67,1.67,0,0,1,20,28" transform="translate(-0.01 -7.21)"/><path class="bcdab563-327c-4df7-ae78-a33687a1d964" d="M5.81,24.66h-.1l-.26,0h0A1.67,1.67,0,0,0,5.63,28" transform="translate(-0.01 -7.21)"/><path class="bcdab563-327c-4df7-ae78-a33687a1d964" d="M27.09,48.66S28.71,36.48,16.5,34.4a5.77,5.77,0,0,0-.62-.09" transform="translate(-0.01 -7.21)"/><path class="bcdab563-327c-4df7-ae78-a33687a1d964" d="M9.76,34.31q-.31,0-.63.09c-5.07.87-7.21,3.27-8.62,6" transform="translate(-0.01 -7.21)"/><path class="bcdab563-327c-4df7-ae78-a33687a1d964" d="M10.6,30.75a3.38,3.38,0,0,0,2.22,1,3.36,3.36,0,0,0,2.22-1" transform="translate(-0.01 -7.21)"/><path class="bcdab563-327c-4df7-ae78-a33687a1d964" d="M19.83,24.66c0-3.11-4.94-5.57-4.94-5.57s-.73-4.05,1.27-4.33" transform="translate(-0.01 -7.21)"/><path class="bcdab563-327c-4df7-ae78-a33687a1d964" d="M20.35,35.55c2.7,1.72,4.25.65,5.5-1.16-3.79-.59-4.47-2.63-3.18-5.68,3.65-11.94-5.77-14.46-6.51-13.93" transform="translate(-0.01 -7.21)"/><path class="bcdab563-327c-4df7-ae78-a33687a1d964" d="M5.29,35.55c-2.7,1.72-3.53.57-4.78-1.24,3.79-.59,3.76-2.55,2.46-5.6-3.66-11.94,7.32-17.65,12.9-13.86" transform="translate(-0.01 -7.21)"/><path class="bcdab563-327c-4df7-ae78-a33687a1d964" d="M5.81,24.66c2-3.11,5.58-1.75,9.08-5.56" transform="translate(-0.01 -7.21)"/><line class="bcdab563-327c-4df7-ae78-a33687a1d964" x1="12.81" y1="2.08" x2="12.81" y2="4.97"/><line class="bcdab563-327c-4df7-ae78-a33687a1d964" x1="11.37" y1="3.52" x2="14.26" y2="3.52"/><path class="a77f75a2-b9aa-4e59-968b-83b311c3e68f" d="M16.44,25.74a.58.58,0,0,0-.57-.57.57.57,0,0,0-.57.57.56.56,0,0,0,.57.57.59.59,0,0,0,.4-.16A.58.58,0,0,0,16.44,25.74Z" transform="translate(-0.01 -7.21)"/><circle class="a77f75a2-b9aa-4e59-968b-83b311c3e68f" cx="9.76" cy="18.54" r="1"/><line class="bcdab563-327c-4df7-ae78-a33687a1d964" x1="16.42" y1="18.54" x2="17.09" y2="18.2"/><line class="bbb7dfd9-6c9d-4ade-ab22-57bf53f2c66d" x1="8.54" y1="18.15" x2="7.87" y2="17.81"/><line class="bcdab563-327c-4df7-ae78-a33687a1d964" x1="25.51" y1="27.94" x2="26.88" y2="31.13"/><path class="bcdab563-327c-4df7-ae78-a33687a1d964" d="M49.39,34c-.76-.41-1.91-.9-2.61-1.28l-.22-.11-3.07-1.65C48,33.26,50,34.28,49.39,34Z" transform="translate(-0.01 -7.21)"/><path class="bcdab563-327c-4df7-ae78-a33687a1d964" d="M26.2,34.79c.77-.41,3.11-1.72,3.81-2.1l.22-.11c.69-.36,2.57-1.39,3.07-1.65" transform="translate(-0.01 -7.21)"/><path class="bcdab563-327c-4df7-ae78-a33687a1d964" d="M20.48,42.45s4.84,1,5.21,2.61v3.71" transform="translate(-0.01 -7.21)"/><line class="bcdab563-327c-4df7-ae78-a33687a1d964" x1="21.4" y1="41.56" x2="21.4" y2="35.47"/><path class="bcdab563-327c-4df7-ae78-a33687a1d964" d="M47,17.59a8.65,8.65,0,0,1,.26,3.12" transform="translate(-0.01 -7.21)"/><path class="bcdab563-327c-4df7-ae78-a33687a1d964" d="M29.8,17.59a8.67,8.67,0,0,0-.27,3.12" transform="translate(-0.01 -7.21)"/><path class="bcdab563-327c-4df7-ae78-a33687a1d964" d="M29.81,24.55a11.79,11.79,0,0,0,3.49,6.38,8.08,8.08,0,0,0,1.3,1,7.18,7.18,0,0,0,3.69,1h.22a7.14,7.14,0,0,0,3.68-1,7.66,7.66,0,0,0,1.3-1A11.74,11.74,0,0,0,47,24.55" transform="translate(-0.01 -7.21)"/><path class="bcdab563-327c-4df7-ae78-a33687a1d964" d="M43.15,16.68l1.44,3.38,2.68.65A1.94,1.94,0,0,1,47,24.55" transform="translate(-0.01 -7.21)"/><path class="bcdab563-327c-4df7-ae78-a33687a1d964" d="M33.64,16.68l-1.42,3.38-2.68.65a1.94,1.94,0,0,0,.27,3.84" transform="translate(-0.01 -7.21)"/><path class="bcdab563-327c-4df7-ae78-a33687a1d964" d="M35.73,27.7a3.83,3.83,0,0,0,2.58,1.13h.18a3.87,3.87,0,0,0,2.58-1.13" transform="translate(-0.01 -7.21)"/><path class="bcdab563-327c-4df7-ae78-a33687a1d964" d="M43.5,22.08A2.06,2.06,0,0,0,42,21.45a2.12,2.12,0,0,0-1.48.6" transform="translate(-0.01 -7.21)"/><path class="bcdab563-327c-4df7-ae78-a33687a1d964" d="M33.29,22.08a2.1,2.1,0,0,1,1.47-.63,2.16,2.16,0,0,1,1.48.6" transform="translate(-0.01 -7.21)"/><path class="b6755205-301a-4d73-9df8-2d9aa0d9dde9" d="M38.9,9.65a.42.42,0,0,1,.3.12.4.4,0,0,1,.13.31v1.43h1.42a.45.45,0,0,1,.45.45v.43a.47.47,0,0,1-.47.47h-1.4v1.41a.45.45,0,0,1-.45.45h-.41a.45.45,0,0,1-.45-.45V12.86H36.63a.47.47,0,0,1-.47-.47V12a.45.45,0,0,1,.45-.45H38V10.08a.44.44,0,0,1,.13-.31.42.42,0,0,1,.3-.12Z" transform="translate(-0.01 -7.21)"/><path class="bcdab563-327c-4df7-ae78-a33687a1d964" d="M47,17.59s.35-9.88-1.92-9.88H31.72c-2.28,0-1.92,9.88-1.92,9.88" transform="translate(-0.01 -7.21)"/><path class="bcdab563-327c-4df7-ae78-a33687a1d964" d="M29.8,17.59c.93-.85,7.31-1.25,8.51-1.25h.18c1.2,0,7.57.41,8.51,1.25" transform="translate(-0.01 -7.21)"/><rect class="bcdab563-327c-4df7-ae78-a33687a1d964" x="31.75" y="34.46" width="13.28" height="6.98"/><rect class="bcdab563-327c-4df7-ae78-a33687a1d964" x="31.75" y="37.04" width="13.28" height="4.4"/><line class="bcdab563-327c-4df7-ae78-a33687a1d964" x1="46.98" y1="25.6" x2="45.03" y2="34.46"/><line class="bcdab563-327c-4df7-ae78-a33687a1d964" x1="31.76" y1="34.46" x2="29.64" y2="25.68"/><path class="bcdab563-327c-4df7-ae78-a33687a1d964" d="M33.31,30.93c-.91,5,3.76,7.73,5.09,7.73s6-2.76,5.09-7.73" transform="translate(-0.01 -7.21)"/></svg>