<svg id="a17d74c3-b756-4f91-ac7f-9722b38508e5" data-name="Layer 1" xmlns="http://www.w3.org/2000/svg" viewBox="0 0 50 50"><defs><style>.a6d6c7c2-980f-472e-b704-7856c01cf54a,.ea384e39-efdb-41a5-b515-b2b8a307a825{fill:none;stroke:#fff;stroke-linecap:round;stroke-linejoin:round;}.a6d6c7c2-980f-472e-b704-7856c01cf54a{stroke-width:2px;}.ea384e39-efdb-41a5-b515-b2b8a307a825{stroke-width:1.14px;}.a7a2984a-daef-4fa0-b5e6-b3dd14872078{fill:#fff;}</style></defs><title>WhyUs-Professional</title><rect class="a6d6c7c2-980f-472e-b704-7856c01cf54a" x="1.18" y="9.18" width="46.93" height="31.21"/><rect class="a6d6c7c2-980f-472e-b704-7856c01cf54a" x="4.52" y="12.52" width="40.25" height="24.52"/><line class="a6d6c7c2-980f-472e-b704-7856c01cf54a" x1="44.77" y1="12.52" x2="48.11" y2="9.18"/><line class="a6d6c7c2-980f-472e-b704-7856c01cf54a" x1="44.77" y1="37.04" x2="48.11" y2="40.38"/><line class="a6d6c7c2-980f-472e-b704-7856c01cf54a" x1="4.52" y1="12.52" x2="1.18" y2="9.18"/><line class="a6d6c7c2-980f-472e-b704-7856c01cf54a" x1="4.52" y1="37.04" x2="1.18" y2="40.38"/><path class="ea384e39-efdb-41a5-b515-b2b8a307a825" d="M41.57,19.79a1.64,1.64,0,0,1-1.73.48,53.11,53.11,0,0,0-15.2-2.13A53.58,53.58,0,0,0,9.49,20.27a1.68,1.68,0,0,1-1.79-.5,1,1,0,0,1-.13-1A1.44,1.44,0,0,1,8.51,18a58.66,58.66,0,0,1,16.13-2.2A59.06,59.06,0,0,1,40.73,18a1.48,1.48,0,0,1,1,.76,1,1,0,0,1-.12,1.06Z"/><path class="ea384e39-efdb-41a5-b515-b2b8a307a825" d="M15.74,28.77c1.47.5,2.43-.94,1.22-1.78a2,2,0,0,0-.67-.3"/><path class="ea384e39-efdb-41a5-b515-b2b8a307a825" d="M14,30c.79,1.29,2.45.9,2.08-.56a2,2,0,0,0-.33-.66"/><path class="ea384e39-efdb-41a5-b515-b2b8a307a825" d="M11.87,29.8c-.29,1.94,2.06,2.26,2.13.18"/><path class="ea384e39-efdb-41a5-b515-b2b8a307a825" d="M10.36,28.3c-1.47,1.3.14,3,1.51,1.5"/><path class="ea384e39-efdb-41a5-b515-b2b8a307a825" d="M10.17,26.17c-2,0-1.86,2.43.19,2.14"/><path class="ea384e39-efdb-41a5-b515-b2b8a307a825" d="M11.39,24.42c-1.55-1.22-3,.68-1.22,1.75"/><path class="ea384e39-efdb-41a5-b515-b2b8a307a825" d="M13.44,23.87c-.4-1.92-2.72-1.42-2.06.55"/><path class="ea384e39-efdb-41a5-b515-b2b8a307a825" d="M15.39,24.77c.94-1.7-1.18-2.84-1.93-.9"/><path class="ea384e39-efdb-41a5-b515-b2b8a307a825" d="M16.29,26.7c1.83-.71.9-2.92-.9-1.93"/><line class="ea384e39-efdb-41a5-b515-b2b8a307a825" x1="16.01" y1="34.48" x2="13.72" y2="30.94"/><polyline class="ea384e39-efdb-41a5-b515-b2b8a307a825" points="16.09 29.52 16.09 29.52 18.33 32.98"/><path class="ea384e39-efdb-41a5-b515-b2b8a307a825" d="M10,30,8,33h.13a2.34,2.34,0,0,1,2.19,1.5l2.07-3.2"/><path class="ea384e39-efdb-41a5-b515-b2b8a307a825" d="M16.09,29.52h0L18.33,33h-.06A2.4,2.4,0,0,0,16,34.48l-2.28-3.54"/><line class="ea384e39-efdb-41a5-b515-b2b8a307a825" x1="22.12" y1="27.47" x2="40.57" y2="27.47"/><line class="ea384e39-efdb-41a5-b515-b2b8a307a825" x1="22.12" y1="33.05" x2="40.57" y2="33.05"/><line class="ea384e39-efdb-41a5-b515-b2b8a307a825" x1="22.12" y1="30.26" x2="40.57" y2="30.26"/><circle class="a7a2984a-daef-4fa0-b5e6-b3dd14872078" cx="23.19" cy="23.46" r="1.07"/><path class="ea384e39-efdb-41a5-b515-b2b8a307a825" d="M15.11,27a2,2,0,1,0-.59,1.43A2,2,0,0,0,15.11,27Z"/><circle class="a7a2984a-daef-4fa0-b5e6-b3dd14872078" cx="26.45" cy="23.46" r="1.07"/><circle class="a7a2984a-daef-4fa0-b5e6-b3dd14872078" cx="29.72" cy="23.46" r="1.07"/><circle class="a7a2984a-daef-4fa0-b5e6-b3dd14872078" cx="32.98" cy="23.46" r="1.07"/><circle class="a7a2984a-daef-4fa0-b5e6-b3dd14872078" cx="36.25" cy="23.46" r="1.07"/><circle class="a7a2984a-daef-4fa0-b5e6-b3dd14872078" cx="39.51" cy="23.46" r="1.07"/></svg>