<svg id="e6c64d93-dff8-43de-8ce7-771bc724028c" data-name="Layer 1" xmlns="http://www.w3.org/2000/svg" viewBox="0 0 50 50"><defs><style>.bb094b48-01f2-485b-9f80-d118a726d4ef{fill:none;stroke:#fff;stroke-width:1.35px;}.fed373a1-c92e-4fcd-bbbb-f8768bcd5200{fill:#fff;fill-rule:evenodd;}</style></defs><title>WhyUs-Locations</title><path class="bb094b48-01f2-485b-9f80-d118a726d4ef" d="M41,8.15a13.52,13.52,0,0,1,8.06,17.33C46.5,32.5,35,46.4,28,43.85s-6.87-20.59-4.31-27.61A13.51,13.51,0,0,1,41,8.15ZM38.68,14.5a6.77,6.77,0,1,0,4,8.67A6.76,6.76,0,0,0,38.68,14.5Z"/><path class="fed373a1-c92e-4fcd-bbbb-f8768bcd5200" d="M9,8.15A13.52,13.52,0,0,0,.94,25.48C3.5,32.5,15,46.4,22,43.85s6.87-20.59,4.31-27.61A13.51,13.51,0,0,0,9,8.15Zm2.32,6.35a6.77,6.77,0,1,1-4,8.67A6.76,6.76,0,0,1,11.32,14.5Z"/></svg>