<svg id="a063d161-736f-4b36-8606-fe00cdc4e61b" data-name="Layer 1" xmlns="http://www.w3.org/2000/svg" viewBox="0 0 50 50"><defs><style>.e91ee59d-2388-47e5-9d4e-b2e1d20ceb50{fill:none;stroke:#fff;}</style></defs><title>WhyUs-Community</title><path class="e91ee59d-2388-47e5-9d4e-b2e1d20ceb50" d="M9.76,32.77V26.36c-.27-1.64-1.42-3.21-3-3.21H5.64"/><path class="e91ee59d-2388-47e5-9d4e-b2e1d20ceb50" d="M10.5,46,1.87,31.31,1.74,19.75H2.85c1.61,0,2.76,1.57,3,3.21v6.4l2.37,2.53L15,38.75h0l-4.22-4.24c-1.05-1.11-.7-3.19.41-4.25l.3-.25L19,37.6l1,4.89v5.06"/><line class="e91ee59d-2388-47e5-9d4e-b2e1d20ceb50" x1="23.08" y1="47.86" x2="7.98" y2="47.86"/><path class="e91ee59d-2388-47e5-9d4e-b2e1d20ceb50" d="M40.24,32.77V26.36c.26-1.64,1.42-3.2,3-3.21h1.09"/><path class="e91ee59d-2388-47e5-9d4e-b2e1d20ceb50" d="M39.5,46l8.63-14.64.13-11.56H47.15c-1.61,0-2.76,1.57-3,3.21v6.4l-2.37,2.53L35,38.75h0l4.22-4.24c1-1.11.69-3.19-.42-4.25l-.3-.25L31,37.6l-1,4.89v5.06"/><line class="e91ee59d-2388-47e5-9d4e-b2e1d20ceb50" x1="26.92" y1="47.86" x2="42.02" y2="47.86"/><path class="e91ee59d-2388-47e5-9d4e-b2e1d20ceb50" d="M37.55,20.54c.73,0,1.77-.65,1.76-1.44V10.36A2.13,2.13,0,0,0,38,8.43a12.28,12.28,0,0,0-7.63,0,2.13,2.13,0,0,0-1.29,1.93v9.49"/><polyline class="e91ee59d-2388-47e5-9d4e-b2e1d20ceb50" points="19.56 12.09 21.96 19.65 19.34 20.56"/><path class="e91ee59d-2388-47e5-9d4e-b2e1d20ceb50" d="M26.82,19a1.63,1.63,0,1,1-1.63-1.64,1.65,1.65,0,0,1,1.15.49A1.62,1.62,0,0,1,26.82,19Z"/><rect class="e91ee59d-2388-47e5-9d4e-b2e1d20ceb50" x="22.81" y="22.34" width="4.48" height="4.89"/><line class="e91ee59d-2388-47e5-9d4e-b2e1d20ceb50" x1="20.89" y1="19.85" x2="22.78" y2="22.34"/><line class="e91ee59d-2388-47e5-9d4e-b2e1d20ceb50" x1="27.31" y1="22.34" x2="29.1" y2="19.69"/><line class="e91ee59d-2388-47e5-9d4e-b2e1d20ceb50" x1="23.76" y1="27.13" x2="23.76" y2="30.26"/><line class="e91ee59d-2388-47e5-9d4e-b2e1d20ceb50" x1="26.33" y1="27.13" x2="26.33" y2="30.26"/><path class="e91ee59d-2388-47e5-9d4e-b2e1d20ceb50" d="M13.79,25.56l.6,4.63h2.39c.17-1.55.44-3.08.61-4.63"/><polyline class="e91ee59d-2388-47e5-9d4e-b2e1d20ceb50" points="31.23 11.7 31.23 29.61 37.18 29.61 37.18 11.7"/><path class="e91ee59d-2388-47e5-9d4e-b2e1d20ceb50" d="M19.56,12.09a3.54,3.54,0,0,0-1.44-1.93,6.36,6.36,0,0,0-2.53-.61h0a6.36,6.36,0,0,0-2.54.61,3.59,3.59,0,0,0-1.45,1.93l-1.12,3.82L11.7,20"/><polyline class="e91ee59d-2388-47e5-9d4e-b2e1d20ceb50" points="13.35 12.57 10.82 25.09 20.35 25.09 17.82 12.57"/><path class="e91ee59d-2388-47e5-9d4e-b2e1d20ceb50" d="M37,5a2.8,2.8,0,1,1-2.79-2.82A2.8,2.8,0,0,1,37,5Z"/><path class="e91ee59d-2388-47e5-9d4e-b2e1d20ceb50" d="M18.24,6.68A2.65,2.65,0,1,1,15.59,4a2.72,2.72,0,0,1,1.88.79A2.61,2.61,0,0,1,18.24,6.68Z"/><line class="e91ee59d-2388-47e5-9d4e-b2e1d20ceb50" x1="34.21" y1="21.01" x2="34.21" y2="29.44"/></svg>