<svg xmlns="http://www.w3.org/2000/svg" viewBox="0 0 36.43 25.83"><title>YT</title><g id="f6ecaa0d-665e-48c6-8756-8f10283fb7a1" data-name="Layer 2"><g id="bdb72fd4-f8a2-4434-8edd-4483edb65ba1" data-name="Layer 1"><path d="M36.42,11.91c0-1.81-.12-3.62-.24-5.42a8,8,0,0,0-1.07-3.74A4.09,4.09,0,0,0,31.91.5C28.49.24,25.07.07,21.64,0,16.38,0,11.13-.07,5.88.39A5.24,5.24,0,0,0,3.49.91,6.58,6.58,0,0,0,1,3.89a9.42,9.42,0,0,0-.73,3.4C.1,9.44,0,11.59,0,13.74c0,1.73.13,3.46.24,5.19A8.36,8.36,0,0,0,1.52,23a4.65,4.65,0,0,0,3.85,2.46c1.67.07,3.33.22,5,.26,2.35.06,4.71.16,6.6.12,5,0,9.57,0,14.11-.37a3.72,3.72,0,0,0,1.49-.37,6.37,6.37,0,0,0,2.69-2.77,8.71,8.71,0,0,0,1-3.82C36.33,16.3,36.47,14.1,36.42,11.91Zm-11.34,1.4q-2.31,1.55-4.63,3.08l-5.29,3.53-.19.13c-.3.19-.45.15-.44-.24,0-1.1,0-2.19,0-3.28V6.15c0-.15-.06-.35.08-.44s.32,0,.46.14q4.35,2.91,8.71,5.81c.42.29.85.57,1.28.85S25.61,13,25.08,13.31Z"/></g></g></svg>